<svg id="check" xmlns="http://www.w3.org/2000/svg" width="47.417" height="47.417" viewBox="0 0 47.417 47.417">
  <g id="Grupo_66" data-name="Grupo 66" transform="translate(11.406 15.315)">
    <g id="Grupo_65" data-name="Grupo 65">
      <path id="Caminho_116" data-name="Caminho 116" d="M147.3,165.963a1.922,1.922,0,0,0-2.717-.072L132.311,177.53l-5.853-6.01A1.922,1.922,0,0,0,123.7,174.2l7.177,7.368a1.923,1.923,0,0,0,2.7.054l13.648-12.944A1.922,1.922,0,0,0,147.3,165.963Z" transform="translate(-123.158 -165.364)" fill="#"/>
    </g>
  </g>
  <g id="Grupo_68" data-name="Grupo 68">
    <g id="Grupo_67" data-name="Grupo 67">
      <path id="Caminho_117" data-name="Caminho 117" d="M23.708,0A23.708,23.708,0,1,0,47.417,23.708,23.735,23.735,0,0,0,23.708,0Zm0,43.572A19.864,19.864,0,1,1,43.572,23.708,19.886,19.886,0,0,1,23.708,43.572Z" fill="#fff"/>
    </g>
  </g>
</svg>
