<svg xmlns="http://www.w3.org/2000/svg" width="23.324" height="23.324" viewBox="0 0 23.324 23.324">
  <g id="disquete" transform="translate(-238.005 -167.998)">
    <path id="Caminho_1362" data-name="Caminho 1362" d="M245,168.582v5.831a.583.583,0,0,0,.583.583h8.163a.583.583,0,0,0,.583-.583v-5.831a.583.583,0,0,1,.583-.583h.783a2.332,2.332,0,0,1,1.649.683l3.3,3.3a2.332,2.332,0,0,1,.683,1.649V188.99A2.332,2.332,0,0,1,259,191.322H240.337A2.332,2.332,0,0,1,238,188.99V170.331A2.332,2.332,0,0,1,240.337,168h4.082a.583.583,0,0,1,.583.583ZM250.25,168h1.166a.583.583,0,0,1,.583.583v3.5a.583.583,0,0,1-.583.583H250.25a.583.583,0,0,1-.583-.583v-3.5A.583.583,0,0,1,250.25,168Zm-4.665,15.161a4.082,4.082,0,1,0,4.082-4.082A4.082,4.082,0,0,0,245.585,183.159Z" transform="translate(0)" fill="#fff"/>
  </g>
</svg>
