<svg xmlns="http://www.w3.org/2000/svg" width="21.45" height="39" viewBox="0 0 21.45 39">
  <g id="maquininha" transform="translate(-221.666 -46.67)">
    <path id="Caminho_2047" data-name="Caminho 2047" d="M223.181,319.044a1.951,1.951,0,0,0,1.947,1.842h15.7a1.95,1.95,0,0,0,1.947-1.842l.873-15.708H222.309Zm12.725-12.783h1.95v1.95h-1.95Zm0,3.9h1.95v1.95h-1.95Zm0,3.9h1.95v1.95h-1.95Zm-3.9-7.8h1.95v1.95h-1.95Zm0,3.9h1.95v1.95h-1.95Zm0,3.9h1.95v1.95h-1.95Zm-3.9-7.8h1.95v1.95h-1.95Zm0,3.9h1.95v1.95h-1.95Zm0,3.9h1.95v1.95h-1.95Z" transform="translate(-0.589 -235.216)"/>
    <path id="Caminho_2048" data-name="Caminho 2048" d="M243.116,52.52V49.6a2.929,2.929,0,0,0-2.925-2.925h-11.7a2.929,2.929,0,0,0-2.925,2.925v3.9h-1.95a1.952,1.952,0,0,0-1.95,1.95l0,10.725h21.448V55.445a1.952,1.952,0,0,0-1.95-1.95h-1.95V52.52Zm-3.9-2.925a.975.975,0,0,1,1.95,0v.975h-1.95Zm-11.7,3.9V49.6a.976.976,0,0,1,.975-.975h8.942a2.93,2.93,0,0,0-.167.975V56.42h-9.749Zm11.7,9.75h-1.95v-3.9h1.95Z"/>
  </g>
</svg>
