<svg xmlns="http://www.w3.org/2000/svg" width="22.889" height="23.89" viewBox="0 0 22.889 23.89">
  <g id="form" transform="translate(0 0.001)">
    <path id="Caminho_786" data-name="Caminho 786" d="M66.635,98.637H62.458a.7.7,0,1,0,0,1.4h4.177a.7.7,0,0,0,0-1.4Zm0,0" transform="translate(-58.876 -94.035)" fill="#575757"/>
    <path id="Caminho_787" data-name="Caminho 787" d="M66.635,158.641H62.458a.7.7,0,1,0,0,1.4h4.177a.7.7,0,0,0,0-1.4Zm0,0" transform="translate(-58.876 -151.239)" fill="#575757"/>
    <path id="Caminho_788" data-name="Caminho 788" d="M66.635,218.645H62.458a.7.7,0,0,0,0,1.4h4.177a.7.7,0,0,0,0-1.4Zm0,0" transform="translate(-58.876 -208.444)" fill="#575757"/>
    <path id="Caminho_789" data-name="Caminho 789" d="M66.635,278.648H62.458a.7.7,0,0,0,0,1.4h4.177a.7.7,0,0,0,0-1.4Zm0,0" transform="translate(-58.876 -265.647)" fill="#575757"/>
    <path id="Caminho_790" data-name="Caminho 790" d="M66.635,339.656H62.458a.7.7,0,1,0,0,1.4h4.177a.7.7,0,1,0,0-1.4Zm0,0" transform="translate(-58.876 -323.808)" fill="#575757"/>
    <path id="Caminho_791" data-name="Caminho 791" d="M202.356,100.037h4.177a.7.7,0,0,0,0-1.4h-4.177a.7.7,0,0,0,0,1.4Zm0,0" transform="translate(-192.247 -94.035)" fill="#575757"/>
    <path id="Caminho_792" data-name="Caminho 792" d="M202.356,160.041h4.177a.7.7,0,0,0,0-1.4h-4.177a.7.7,0,1,0,0,1.4Zm0,0" transform="translate(-192.247 -151.239)" fill="#575757"/>
    <path id="Caminho_793" data-name="Caminho 793" d="M205.068,219.345a.7.7,0,0,0-.7-.7h-2.012a.7.7,0,1,0,0,1.4h2.012A.7.7,0,0,0,205.068,219.345Zm0,0" transform="translate(-192.246 -208.444)" fill="#575757"/>
    <path id="Caminho_794" data-name="Caminho 794" d="M314.445,342.842a.7.7,0,0,0-.984.108l-1.8,2.247-1.116-.809a.7.7,0,1,0-.821,1.134l1.656,1.2a.7.7,0,0,0,.957-.129l2.22-2.767A.7.7,0,0,0,314.445,342.842Zm0,0" transform="translate(-294.994 -326.698)" fill="#575757"/>
    <path id="Caminho_795" data-name="Caminho 795" d="M21.221,13.995a5.772,5.772,0,0,0-3.352-1.685V2.818A2.822,2.822,0,0,0,15.049,0H2.819A2.822,2.822,0,0,0,0,2.818V19.031A2.822,2.822,0,0,0,2.819,21.85h9.837a5.762,5.762,0,0,0,4.42,2.039,5.817,5.817,0,0,0,4.145-9.895ZM1.4,19.031V2.818A1.421,1.421,0,0,1,2.819,1.4h12.23a1.421,1.421,0,0,1,1.419,1.419v9.47a5.821,5.821,0,0,0-4.7,8.162H2.819A1.421,1.421,0,0,1,1.4,19.031ZM17.076,22.49a4.417,4.417,0,0,1,0-8.834h.08a4.417,4.417,0,0,1-.08,8.833Zm0,0" fill="#575757"/>
  </g>
</svg>
