<svg id="chave" xmlns="http://www.w3.org/2000/svg" width="22.816" height="22.816" viewBox="0 0 22.816 22.816">
  <g id="Grupo_471" data-name="Grupo 471" transform="translate(15.931 3.787)">
    <g id="Grupo_470" data-name="Grupo 470" transform="translate(0 0)">
      <ellipse id="Elipse_51" data-name="Elipse 51" cx="1.21" cy="1.815" rx="1.21" ry="1.815" fill="#575757"/>
    </g>
  </g>
  <g id="Grupo_473" data-name="Grupo 473">
    <g id="Grupo_472" data-name="Grupo 472">
      <path id="Caminho_785" data-name="Caminho 785" d="M15.865,0A6.956,6.956,0,0,0,9.1,8.539L0,17.634v5.182H5.7v-2.5H8.2v-2.5h2.5v-2.5h1.973l1.609-1.609A6.952,6.952,0,1,0,15.865,0Zm0,12.121a5.168,5.168,0,0,1-1.579-.246l-.518-.166L11.93,13.547H8.913v2.5h-2.5v2.5h-2.5v2.5H1.783V18.373l9.324-9.324-.166-.518a5.17,5.17,0,1,1,4.924,3.59Z" fill="#575757"/>
    </g>
  </g>
</svg>
