<svg width="200" height="69" viewBox="0 0 200 69" fill="none" xmlns="http://www.w3.org/2000/svg">
<g clip-path="url(#clip0_691_1951)">
<path d="M158.688 55.5762C164.168 64.6272 173.949 67.0762 180.936 64.9532C185.602 63.2378 189.503 59.9125 191.936 55.5762" stroke="#05CB95" stroke-width="5" stroke-linecap="round"/>
<path d="M11.778 39.2773C11.414 39.2773 11.115 39.1603 10.881 38.9263C10.673 38.6923 10.569 38.4193 10.569 38.1073V13.2643H12.987V38.1073C12.987 38.4193 12.87 38.6923 12.636 38.9263C12.402 39.1603 12.116 39.2773 11.778 39.2773ZM2.496 14.2003C2.184 14.2003 1.911 14.0963 1.677 13.8883C1.443 13.6803 1.326 13.4073 1.326 13.0693C1.326 12.7573 1.443 12.4973 1.677 12.2893C1.911 12.0813 2.184 11.9773 2.496 11.9773H21.06C21.372 11.9773 21.645 12.0813 21.879 12.2893C22.113 12.4973 22.23 12.7703 22.23 13.1083C22.23 13.4463 22.113 13.7193 21.879 13.9273C21.645 14.1093 21.372 14.2003 21.06 14.2003H2.496ZM30.9425 39.6673C28.9405 39.6673 27.1725 39.2383 25.6385 38.3803C24.1045 37.5223 22.9085 36.3263 22.0505 34.7923C21.1925 33.2583 20.7635 31.4643 20.7635 29.4103C20.7635 27.2003 21.1925 25.3153 22.0505 23.7553C22.9345 22.1953 24.0655 20.9993 25.4435 20.1673C26.8475 19.3093 28.3295 18.8803 29.8895 18.8803C31.0335 18.8803 32.1385 19.0883 33.2045 19.5043C34.2965 19.8943 35.2585 20.4923 36.0905 21.2983C36.9485 22.0783 37.6245 23.0403 38.1185 24.1843C38.6385 25.3283 38.9245 26.6543 38.9765 28.1623C38.9505 28.4743 38.8205 28.7473 38.5865 28.9813C38.3525 29.1893 38.0795 29.2933 37.7675 29.2933H22.1285L21.6605 27.1873H37.0265L36.5195 27.6553V26.8753C36.4155 25.6533 36.0255 24.6133 35.3495 23.7553C34.6735 22.8973 33.8545 22.2473 32.8925 21.8053C31.9305 21.3633 30.9295 21.1423 29.8895 21.1423C29.1095 21.1423 28.3035 21.2983 27.4715 21.6103C26.6655 21.9223 25.9245 22.4163 25.2485 23.0923C24.5985 23.7423 24.0655 24.5873 23.6495 25.6273C23.2335 26.6413 23.0255 27.8503 23.0255 29.2543C23.0255 30.7883 23.3375 32.1793 23.9615 33.4273C24.5855 34.6753 25.4825 35.6633 26.6525 36.3913C27.8485 37.1193 29.2655 37.4833 30.9035 37.4833C31.8135 37.4833 32.6325 37.3533 33.3605 37.0933C34.0885 36.8333 34.7255 36.4953 35.2715 36.0793C35.8175 35.6373 36.2725 35.1823 36.6365 34.7143C36.9225 34.4803 37.2085 34.3633 37.4945 34.3633C37.7545 34.3633 37.9755 34.4673 38.1575 34.6753C38.3655 34.8833 38.4695 35.1173 38.4695 35.3773C38.4695 35.6893 38.3395 35.9623 38.0795 36.1963C37.2995 37.1323 36.2855 37.9513 35.0375 38.6533C33.7895 39.3293 32.4245 39.6673 30.9425 39.6673ZM52.9553 19.1923C54.5673 19.1923 55.9453 19.6213 57.0893 20.4793C58.2333 21.3113 59.0133 22.5593 59.4293 24.2233L58.8833 24.3793L59.1173 23.6773C59.4553 22.8973 60.0143 22.1693 60.7943 21.4933C61.6003 20.7913 62.5103 20.2323 63.5243 19.8163C64.5383 19.4003 65.5653 19.1923 66.6053 19.1923C68.2433 19.1923 69.5563 19.5433 70.5443 20.2453C71.5583 20.9473 72.2863 21.8963 72.7283 23.0923C73.1963 24.2623 73.4303 25.5883 73.4303 27.0703V38.1073C73.4303 38.4193 73.3133 38.6923 73.0793 38.9263C72.8713 39.1603 72.5983 39.2773 72.2603 39.2773C71.9223 39.2773 71.6363 39.1603 71.4023 38.9263C71.1943 38.6923 71.0903 38.4193 71.0903 38.1073V27.1873C71.0903 26.1213 70.9213 25.1463 70.5833 24.2623C70.2453 23.3783 69.7123 22.6763 68.9843 22.1563C68.2563 21.6363 67.2813 21.3763 66.0593 21.3763C64.9933 21.3763 63.9663 21.6363 62.9783 22.1563C62.0163 22.6763 61.2233 23.3783 60.5993 24.2623C60.0013 25.1463 59.7023 26.1213 59.7023 27.1873V38.1073C59.7023 38.4193 59.5853 38.6923 59.3513 38.9263C59.1433 39.1603 58.8703 39.2773 58.5323 39.2773C58.1943 39.2773 57.9083 39.1603 57.6743 38.9263C57.4663 38.6923 57.3623 38.4193 57.3623 38.1073V27.0703C57.3623 26.0043 57.2063 25.0423 56.8943 24.1843C56.5823 23.3263 56.0753 22.6503 55.3733 22.1563C54.6713 21.6363 53.7223 21.3763 52.5263 21.3763C51.4603 21.3763 50.4463 21.6363 49.4843 22.1563C48.5483 22.6503 47.7813 23.3263 47.1833 24.1843C46.6113 25.0423 46.3253 26.0043 46.3253 27.0703V38.1073C46.3253 38.4193 46.2083 38.6923 45.9743 38.9263C45.7403 39.1603 45.4673 39.2773 45.1553 39.2773C44.7913 39.2773 44.5053 39.1603 44.2973 38.9263C44.0893 38.6923 43.9853 38.4193 43.9853 38.1073V20.6353C43.9853 20.3233 44.0893 20.0503 44.2973 19.8163C44.5313 19.5823 44.8173 19.4653 45.1553 19.4653C45.4933 19.4653 45.7663 19.5823 45.9743 19.8163C46.2083 20.0503 46.3253 20.3233 46.3253 20.6353V24.2623L45.2723 25.7053C45.3503 24.9253 45.5973 24.1453 46.0133 23.3653C46.4553 22.5853 47.0273 21.8833 47.7293 21.2593C48.4313 20.6353 49.2243 20.1413 50.1083 19.7773C51.0183 19.3873 51.9673 19.1923 52.9553 19.1923ZM82.2096 39.2773C81.4816 39.2773 80.8316 39.0563 80.2596 38.6143C79.6876 38.1463 79.4016 37.5743 79.4016 36.8983V14.3563C79.4016 13.6803 79.6226 13.1213 80.0646 12.6793C80.5326 12.2113 81.1046 11.9773 81.7806 11.9773H93.0126C94.3646 11.9773 95.6256 12.3413 96.7956 13.0693C97.9916 13.7713 98.9536 14.7593 99.6816 16.0333C100.41 17.2813 100.774 18.7243 100.774 20.3623C100.774 21.3503 100.566 22.3123 100.15 23.2483C99.7596 24.1843 99.2136 25.0293 98.5116 25.7833C97.8356 26.5373 97.0686 27.1223 96.2106 27.5383L96.2496 26.6413C96.9776 27.0313 97.5756 27.4993 98.0436 28.0453C98.5376 28.5653 98.9146 29.1373 99.1746 29.7613C99.4606 30.3593 99.6296 31.0093 99.6816 31.7113C99.7856 32.3613 99.8506 32.9333 99.8766 33.4273C99.9286 33.9213 100.007 34.3373 100.111 34.6753C100.241 35.0133 100.475 35.2733 100.813 35.4553C101.385 35.7933 101.736 36.2873 101.866 36.9373C102.022 37.5613 101.879 38.1203 101.437 38.6143C101.151 38.9523 100.787 39.1733 100.345 39.2773C99.9026 39.3553 99.4606 39.3553 99.0186 39.2773C98.5766 39.1733 98.2126 39.0433 97.9266 38.8873C97.4846 38.6273 97.0426 38.2503 96.6006 37.7563C96.1586 37.2363 95.7946 36.5473 95.5086 35.6893C95.2486 34.8313 95.1186 33.7263 95.1186 32.3743C95.1186 31.9323 95.0406 31.5293 94.8846 31.1653C94.7286 30.7753 94.5076 30.4503 94.2216 30.1903C93.9356 29.9043 93.5716 29.6963 93.1296 29.5663C92.6876 29.4103 92.1676 29.3323 91.5696 29.3323H83.6916L84.2766 28.4353V36.8983C84.2766 37.5743 84.0946 38.1463 83.7306 38.6143C83.3666 39.0563 82.8596 39.2773 82.2096 39.2773ZM83.7306 25.3153H92.8176C93.2856 25.3153 93.7406 25.1073 94.1826 24.6913C94.6246 24.2493 94.9886 23.6643 95.2746 22.9363C95.5606 22.1823 95.7036 21.3633 95.7036 20.4793C95.7036 19.3353 95.3916 18.3863 94.7676 17.6323C94.1696 16.8523 93.5196 16.4623 92.8176 16.4623H83.8086L84.2766 15.2143V26.2513L83.7306 25.3153ZM123.02 18.0223C123.696 18.0223 124.255 18.2433 124.697 18.6853C125.139 19.1273 125.36 19.6993 125.36 20.4013V36.8983C125.36 37.5743 125.139 38.1463 124.697 38.6143C124.255 39.0563 123.696 39.2773 123.02 39.2773C122.344 39.2773 121.785 39.0563 121.343 38.6143C120.901 38.1463 120.68 37.5743 120.68 36.8983V34.9873L121.538 35.3383C121.538 35.6763 121.356 36.0923 120.992 36.5863C120.628 37.0543 120.134 37.5223 119.51 37.9903C118.886 38.4583 118.145 38.8613 117.287 39.1993C116.455 39.5113 115.545 39.6673 114.557 39.6673C112.763 39.6673 111.138 39.2123 109.682 38.3023C108.226 37.3663 107.069 36.0923 106.211 34.4803C105.379 32.8423 104.963 30.9703 104.963 28.8643C104.963 26.7323 105.379 24.8603 106.211 23.2483C107.069 21.6103 108.213 20.3363 109.643 19.4263C111.073 18.4903 112.659 18.0223 114.401 18.0223C115.519 18.0223 116.546 18.1913 117.482 18.5293C118.418 18.8673 119.224 19.2963 119.9 19.8163C120.602 20.3363 121.135 20.8693 121.499 21.4153C121.889 21.9353 122.084 22.3773 122.084 22.7413L120.68 23.2483V20.4013C120.68 19.7253 120.901 19.1663 121.343 18.7243C121.785 18.2563 122.344 18.0223 123.02 18.0223ZM115.142 35.3773C116.286 35.3773 117.287 35.0913 118.145 34.5193C119.003 33.9473 119.666 33.1673 120.134 32.1793C120.628 31.1913 120.875 30.0863 120.875 28.8643C120.875 27.6163 120.628 26.4983 120.134 25.5103C119.666 24.5223 119.003 23.7423 118.145 23.1703C117.287 22.5983 116.286 22.3123 115.142 22.3123C114.024 22.3123 113.036 22.5983 112.178 23.1703C111.32 23.7423 110.644 24.5223 110.15 25.5103C109.682 26.4983 109.448 27.6163 109.448 28.8643C109.448 30.0863 109.682 31.1913 110.15 32.1793C110.644 33.1673 111.32 33.9473 112.178 34.5193C113.036 35.0913 114.024 35.3773 115.142 35.3773ZM141.582 18.0223C143.506 18.0223 144.962 18.4253 145.95 19.2313C146.964 20.0373 147.653 21.1163 148.017 22.4683C148.407 23.7943 148.602 25.2763 148.602 26.9143V36.8983C148.602 37.5743 148.381 38.1463 147.939 38.6143C147.497 39.0563 146.938 39.2773 146.262 39.2773C145.586 39.2773 145.027 39.0563 144.585 38.6143C144.143 38.1463 143.922 37.5743 143.922 36.8983V26.9143C143.922 26.0563 143.805 25.2893 143.571 24.6133C143.363 23.9113 142.973 23.3523 142.401 22.9363C141.829 22.5203 141.01 22.3123 139.944 22.3123C138.904 22.3123 138.02 22.5203 137.292 22.9363C136.59 23.3523 136.044 23.9113 135.654 24.6133C135.29 25.2893 135.108 26.0563 135.108 26.9143V36.8983C135.108 37.5743 134.887 38.1463 134.445 38.6143C134.003 39.0563 133.444 39.2773 132.768 39.2773C132.092 39.2773 131.533 39.0563 131.091 38.6143C130.649 38.1463 130.428 37.5743 130.428 36.8983V20.7913C130.428 20.1153 130.649 19.5563 131.091 19.1143C131.533 18.6463 132.092 18.4123 132.768 18.4123C133.444 18.4123 134.003 18.6463 134.445 19.1143C134.887 19.5563 135.108 20.1153 135.108 20.7913V22.4683L134.523 22.3513C134.757 21.9093 135.095 21.4413 135.537 20.9473C135.979 20.4273 136.499 19.9463 137.097 19.5043C137.695 19.0623 138.371 18.7113 139.125 18.4513C139.879 18.1653 140.698 18.0223 141.582 18.0223Z" fill="#292F31"/>
<path d="M162.318 18.0223C163.41 18.0223 164.411 18.1913 165.321 18.5293C166.231 18.8673 167.011 19.2963 167.661 19.8163C168.337 20.3363 168.857 20.8693 169.221 21.4153C169.611 21.9353 169.806 22.3773 169.806 22.7413L168.792 23.2483V20.4013C168.792 19.7253 169.013 19.1663 169.455 18.7243C169.897 18.2563 170.456 18.0223 171.132 18.0223C171.808 18.0223 172.367 18.2433 172.809 18.6853C173.251 19.1273 173.472 19.6993 173.472 20.4013V37.7563C173.472 40.0183 172.978 41.8253 171.99 43.1773C171.028 44.5553 169.754 45.5433 168.168 46.1413C166.582 46.7653 164.879 47.0773 163.059 47.0773C162.539 47.0773 161.863 47.0123 161.031 46.8823C160.199 46.7523 159.406 46.5963 158.652 46.4143C157.898 46.2323 157.326 46.0633 156.936 45.9073C156.156 45.5693 155.61 45.1403 155.298 44.6203C155.012 44.1263 154.96 43.5933 155.142 43.0213C155.376 42.2673 155.753 41.7473 156.273 41.4613C156.793 41.2013 157.339 41.1753 157.911 41.3833C158.171 41.4613 158.6 41.6173 159.198 41.8513C159.796 42.0853 160.446 42.2933 161.148 42.4753C161.876 42.6833 162.513 42.7873 163.059 42.7873C165.009 42.7873 166.452 42.3973 167.388 41.6173C168.324 40.8373 168.792 39.7583 168.792 38.3803V34.9873L169.26 35.3383C169.26 35.6763 169.078 36.0923 168.714 36.5863C168.376 37.0543 167.895 37.5223 167.271 37.9903C166.673 38.4583 165.958 38.8613 165.126 39.1993C164.294 39.5113 163.41 39.6673 162.474 39.6673C160.628 39.6673 158.964 39.2123 157.482 38.3023C156 37.3663 154.83 36.0923 153.972 34.4803C153.114 32.8423 152.685 30.9703 152.685 28.8643C152.685 26.7323 153.114 24.8603 153.972 23.2483C154.83 21.6103 155.987 20.3363 157.443 19.4263C158.899 18.4903 160.524 18.0223 162.318 18.0223ZM163.059 22.3123C161.889 22.3123 160.862 22.5983 159.978 23.1703C159.094 23.7423 158.405 24.5223 157.911 25.5103C157.417 26.4983 157.17 27.6163 157.17 28.8643C157.17 30.0863 157.417 31.1913 157.911 32.1793C158.405 33.1673 159.094 33.9473 159.978 34.5193C160.862 35.0913 161.889 35.3773 163.059 35.3773C164.255 35.3773 165.295 35.0913 166.179 34.5193C167.063 33.9473 167.752 33.1673 168.246 32.1793C168.74 31.1913 168.987 30.0863 168.987 28.8643C168.987 27.6163 168.74 26.4983 168.246 25.5103C167.752 24.5223 167.063 23.7423 166.179 23.1703C165.295 22.5983 164.255 22.3123 163.059 22.3123ZM198.009 28.8643C198.009 30.9963 197.528 32.8813 196.566 34.5193C195.63 36.1313 194.356 37.3923 192.744 38.3023C191.158 39.2123 189.377 39.6673 187.401 39.6673C185.425 39.6673 183.631 39.2123 182.019 38.3023C180.433 37.3923 179.159 36.1313 178.197 34.5193C177.261 32.8813 176.793 30.9963 176.793 28.8643C176.793 26.7323 177.261 24.8603 178.197 23.2483C179.159 21.6103 180.433 20.3363 182.019 19.4263C183.631 18.4903 185.425 18.0223 187.401 18.0223C189.377 18.0223 191.158 18.4903 192.744 19.4263C194.356 20.3363 195.63 21.6103 196.566 23.2483C197.528 24.8603 198.009 26.7323 198.009 28.8643ZM193.329 28.8643C193.329 27.5383 193.056 26.3943 192.51 25.4323C191.99 24.4443 191.275 23.6773 190.365 23.1313C189.481 22.5853 188.493 22.3123 187.401 22.3123C186.309 22.3123 185.308 22.5853 184.398 23.1313C183.514 23.6773 182.799 24.4443 182.253 25.4323C181.733 26.3943 181.473 27.5383 181.473 28.8643C181.473 30.1643 181.733 31.3083 182.253 32.2963C182.799 33.2583 183.514 34.0123 184.398 34.5583C185.308 35.1043 186.309 35.3773 187.401 35.3773C188.493 35.3773 189.481 35.1043 190.365 34.5583C191.275 34.0123 191.99 33.2583 192.51 32.2963C193.056 31.3083 193.329 30.1643 193.329 28.8643Z" fill="#05CB95"/>
</g>
<defs>
<clipPath id="clip0_691_1951">
<rect width="200" height="67.931" fill="white" transform="translate(0 0.277344)"/>
</clipPath>
</defs>
</svg>
