<svg xmlns="http://www.w3.org/2000/svg" width="23.107" height="24.896" viewBox="0 0 23.107 24.896">
  <g id="sair" transform="translate(-17.6)">
    <g id="Grupo_475" data-name="Grupo 475" transform="translate(17.6 0)">
      <g id="Grupo_474" data-name="Grupo 474" transform="translate(0 0)">
        <path id="Caminho_796" data-name="Caminho 796" d="M137.32,135.325l.01-.01a.386.386,0,0,0,.041-.056c.005-.005.005-.01.01-.015.01-.02.025-.041.036-.061a.018.018,0,0,1,.005-.01c.01-.02.02-.041.031-.066,0-.005,0-.005.005-.01.01-.02.015-.046.025-.071,0-.005,0-.01.005-.01a.355.355,0,0,0,.015-.071.046.046,0,0,1,.005-.025c.005-.02.005-.041.01-.061a.737.737,0,0,0,0-.173.255.255,0,0,0-.01-.061.046.046,0,0,0-.005-.025c-.005-.025-.01-.046-.015-.071,0-.005,0-.01-.005-.01a.4.4,0,0,0-.025-.071c0-.005,0-.005-.005-.01-.01-.02-.02-.046-.031-.066a.018.018,0,0,0-.005-.01.377.377,0,0,0-.036-.061c-.005-.005-.005-.01-.01-.015a.531.531,0,0,0-.041-.056l-.01-.01a.724.724,0,0,0-.061-.066l-5.026-5.021A.873.873,0,0,0,131,130.365l3.537,3.537H120.474a.872.872,0,1,0,0,1.743h14.066l-3.512,3.512a.871.871,0,1,0,1.23,1.235l5-5C137.28,135.366,137.3,135.345,137.32,135.325Z" transform="translate(-114.417 -122.326)" fill="#575757"/>
        <path id="Caminho_797" data-name="Caminho 797" d="M22.331,1.743h6.5a.872.872,0,1,0,0-1.743h-6.5A4.739,4.739,0,0,0,17.6,4.731V20.165A4.739,4.739,0,0,0,22.331,24.9h6.4a.872.872,0,1,0,0-1.743h-6.4a2.993,2.993,0,0,1-2.988-2.988V4.731A2.993,2.993,0,0,1,22.331,1.743Z" transform="translate(-17.6 0)" fill="#575757"/>
      </g>
    </g>
  </g>
</svg>
