<svg xmlns="http://www.w3.org/2000/svg" width="46.716" height="32.644" viewBox="0 0 46.716 32.644">
  <path id="dinheiro" d="M179.263,142.139H148.394a4.767,4.767,0,0,0-4.754,4.754v16.8a4.767,4.767,0,0,0,4.754,4.754h30.869a4.748,4.748,0,0,0,4.754-4.754v-16.8a4.748,4.748,0,0,0-4.754-4.754Zm-26.337,14.737H151.6a1.585,1.585,0,1,1,0-3.169h1.331a1.585,1.585,0,1,1,0,3.169Zm10.9,5.324a6.9,6.9,0,1,1,4.889-2.02A6.907,6.907,0,0,1,163.828,162.2Zm12.265-5.324h-1.363a1.585,1.585,0,1,1,0-3.169h1.363a1.585,1.585,0,0,1,0,3.169Zm14.262-16.322v16.8a4.74,4.74,0,0,1-3.169,4.469V146.893a7.925,7.925,0,0,0-7.923-7.923H150.3a4.737,4.737,0,0,1,4.469-3.169H185.6a4.767,4.767,0,0,1,4.754,4.754Z" transform="translate(-143.64 -135.8)"/>
</svg>
