<svg xmlns="http://www.w3.org/2000/svg" id="prefix__contrato" width="29.163" height="29.164" viewBox="0 0 29.163 29.164">
    <g id="prefix__Grupo_17" data-name="Grupo 17">
        <path id="prefix__Caminho_402" fill="#ffffff" d="M.307 5.513L5.515.3a1.041 1.041 0 0 1 1.473 0l2.388 2.393L11.764.3a1.041 1.041 0 0 1 1.473 0l7.291 7.3a1.042 1.042 0 0 1-1.447 1.5l-.026-.026-6.555-6.56-1.651 1.652 16.97 16.97a1.042 1.042 0 0 1 .291.566l1.042 6.249a1.042 1.042 0 0 1-1.027 1.212 1.074 1.074 0 0 1-.172-.015L21.7 28.107a1.041 1.041 0 0 1-.565-.291L.307 6.985a1.042 1.042 0 0 1 0-1.472zm22.068 20.594l4.479.747-.748-4.479-8.4-8.4-3.735 3.735zM12.5 16.233l3.736-3.733-9.985-9.986-3.735 3.735z" data-name="Caminho 402" transform="translate(-.002)"/>
    </g>
</svg>
