<svg xmlns="http://www.w3.org/2000/svg" width="27.317" height="20.487" viewBox="0 0 27.317 20.487">
    <path id="prefix__email" fill="#373938" d="M24.756 59.882H2.561A2.564 2.564 0 0 0 0 62.443v15.366a2.564 2.564 0 0 0 2.561 2.561h22.195a2.564 2.564 0 0 0 2.561-2.561V62.443a2.564 2.564 0 0 0-2.561-2.561zm0 1.707a.849.849 0 0 1 .327.066l-11.425 9.9-11.425-9.9a.85.85 0 0 1 .327-.066zm0 17.073H2.561a.854.854 0 0 1-.854-.854V63.459L13.1 73.332a.855.855 0 0 0 1.119 0l11.392-9.873v14.35a.854.854 0 0 1-.855.853z" transform="translate(0 -59.882)"/>
</svg>
