<svg xmlns="http://www.w3.org/2000/svg" id="prefix__facebook" width="12.364" height="22.869" viewBox="0 0 12.364 22.869">
    <path id="prefix__Caminho_31" fill="#05cb95" d="M33.976 0H31.01c-3.332 0-5.485 2.209-5.485 5.628v2.595h-2.982a.466.466 0 0 0-.466.467v3.76a.466.466 0 0 0 .466.466h2.982V22.4a.466.466 0 0 0 .466.466h3.89a.466.466 0 0 0 .466-.466v-9.484h3.486a.466.466 0 0 0 .466-.466V8.69a.467.467 0 0 0-.467-.467h-3.484v-2.2c0-1.057.252-1.594 1.629-1.594h2a.466.466 0 0 0 .466-.466V.471A.466.466 0 0 0 33.976 0z" data-name="Caminho 31" transform="translate(-22.077)"/>
</svg>
