<svg xmlns="http://www.w3.org/2000/svg" width="29.348" height="29.348" viewBox="0 0 29.348 29.348">
    <defs>
        <style>
            .prefix__cls-1{fill:#373938}
        </style>
    </defs>
    <g id="prefix__taxas">
        <path id="prefix__Caminho_384" d="M176 126.423l4.053-12.16a.86.86 0 1 0-1.631-.544l-4.053 12.16a.86.86 0 1 0 1.631.544z" class="prefix__cls-1" data-name="Caminho 384" transform="translate(-164.329 -106.647)"/>
        <path id="prefix__Caminho_385" d="M267.112 194.362a2.579 2.579 0 1 0-2.579-2.579 2.582 2.582 0 0 0 2.579 2.579zm0-3.439a.86.86 0 1 1-.86.86.861.861 0 0 1 .86-.86z" class="prefix__cls-1" data-name="Caminho 385" transform="translate(-249.37 -178.358)"/>
        <path id="prefix__Caminho_386" d="M97.406 189.2a2.579 2.579 0 1 0 2.579 2.579 2.582 2.582 0 0 0-2.579-2.579zm0 3.439a.86.86 0 1 1 .86-.86.861.861 0 0 1-.86.863z" class="prefix__cls-1" data-name="Caminho 386" transform="translate(-89.391 -178.358)"/>
        <path id="prefix__Caminho_387" d="M29.176 10.662l-3-4 .117-.819a.86.86 0 0 0-.243-.73l-1.822-1.821 1.824-1.824A.86.86 0 0 0 24.836.252l-1.824 1.824L21.188.252a.861.861 0 0 0-.73-.243l-8.511 1.216a.86.86 0 0 0-.486.243L.922 12.006a3.156 3.156 0 0 0 0 4.458l8.917 8.917a3.145 3.145 0 0 0 .593.465v.354a3.156 3.156 0 0 0 3.153 3.153H26.2a3.156 3.156 0 0 0 3.148-3.153V11.178a.86.86 0 0 0-.172-.516zM2.138 15.249a1.435 1.435 0 0 1 0-2.027L12.474 2.887l7.8-1.115 1.52 1.52-1.214 1.216-.608-.608a.86.86 0 0 0-1.216 1.216l2.432 2.432A.86.86 0 0 0 22.4 6.332l-.6-.608 1.216-1.216 1.52 1.52-1.115 7.8-10.339 10.338a1.433 1.433 0 0 1-2.027 0zM27.629 26.2a1.435 1.435 0 0 1-1.429 1.429H13.585a1.435 1.435 0 0 1-1.429-1.329 3.14 3.14 0 0 0 2.141-.92l10.539-10.537a.86.86 0 0 0 .243-.486l.755-5.285 1.795 2.393z" class="prefix__cls-1" data-name="Caminho 387"/>
    </g>
</svg>
