<svg xmlns="http://www.w3.org/2000/svg" width="64.314" height="57.622" viewBox="0 0 64.314 57.622">
    <defs>
        <style>
            .prefix__cls-1{fill:#373938}
        </style>
    </defs>
    <g id="prefix__food" transform="translate(0 -26.637)">
        <g id="prefix__Grupo_49" data-name="Grupo 49" transform="translate(19.772 47.318)">
            <g id="prefix__Grupo_48" data-name="Grupo 48">
                <path id="prefix__Caminho_62" d="M162.5 192.233a2.932 2.932 0 0 0-5.1 1.928.942.942 0 0 0 .926.958h.016a.942.942 0 0 0 .942-.926 1.046 1.046 0 0 1 1.065-1.029 1.034 1.034 0 0 1 .755.34.942.942 0 1 0 1.391-1.271z" class="prefix__cls-1" data-name="Caminho 62" transform="translate(-157.402 -191.28)"/>
            </g>
        </g>
        <g id="prefix__Grupo_51" data-name="Grupo 51" transform="translate(24.82 49.705)">
            <g id="prefix__Grupo_50" data-name="Grupo 50">
                <path id="prefix__Caminho_63" d="M202.652 211.919a2.691 2.691 0 0 0-5 .119.942.942 0 1 0 1.767.655.81.81 0 0 1 1.038-.477.8.8 0 0 1 .461.44.942.942 0 0 0 1.734-.737z" class="prefix__cls-1" data-name="Caminho 63" transform="translate(-197.594 -210.283)"/>
            </g>
        </g>
        <g id="prefix__Grupo_53" data-name="Grupo 53" transform="translate(33.455 42.722)">
            <g id="prefix__Grupo_52" data-name="Grupo 52">
                <path id="prefix__Caminho_64" d="M268.834 154.969a.942.942 0 0 0-1.332 0l-.888.89a.942.942 0 0 0 1.334 1.331l.888-.89a.942.942 0 0 0-.002-1.331z" class="prefix__cls-1" data-name="Caminho 64" transform="translate(-266.339 -154.693)"/>
            </g>
        </g>
        <g id="prefix__Grupo_55" data-name="Grupo 55" transform="translate(27.892 55.16)">
            <g id="prefix__Grupo_54" data-name="Grupo 54">
                <path id="prefix__Caminho_65" d="M224.247 253.709h-1.256a.942.942 0 0 0 0 1.884h1.256a.942.942 0 0 0 0-1.884z" class="prefix__cls-1" data-name="Caminho 65" transform="translate(-222.049 -253.709)"/>
            </g>
        </g>
        <g id="prefix__Grupo_57" data-name="Grupo 57" transform="translate(37.519 55.16)">
            <g id="prefix__Grupo_56" data-name="Grupo 56">
                <path id="prefix__Caminho_66" d="M300.89 253.709h-1.256a.942.942 0 0 0 0 1.884h1.256a.942.942 0 0 0 0-1.884z" class="prefix__cls-1" data-name="Caminho 66" transform="translate(-298.692 -253.709)"/>
            </g>
        </g>
        <g id="prefix__Grupo_59" data-name="Grupo 59" transform="translate(0 26.637)">
            <g id="prefix__Grupo_58" data-name="Grupo 58">
                <path id="prefix__Caminho_67" d="M64.284 72.147l-.245-1.324a1.787 1.787 0 0 0-2.081-1.431l-4.994.917 2.26-1.509a1.78 1.78 0 0 0 .562-2.358l-.686-1.215a1.782 1.782 0 0 0-1.789-.892 23.831 23.831 0 0 0 .382-4.255 1.575 1.575 0 0 0-.936-1.438 7.224 7.224 0 0 0 .057-5.466 1.143 1.143 0 0 0-.639-.641 7.167 7.167 0 0 0-2.663-.512q-.175 0-.349.009a4.967 4.967 0 0 0-5.983-4.622 7.763 7.763 0 0 0-.439-4.146 1.158 1.158 0 0 0-.651-.657 7.743 7.743 0 0 0-7 .642 9.317 9.317 0 0 0-2.217-3.549 1.6 1.6 0 0 0-2.264 0l-4.561 4.572a4.735 4.735 0 0 0-3.161-1.2 4.765 4.765 0 0 0-3.4 1.428 4.735 4.735 0 0 0-3.513-.25v-3.527a4.448 4.448 0 0 0-4.362-4.445v-2a1.571 1.571 0 0 0 1.3-1.546v-4.525a1.572 1.572 0 0 0-1.57-1.57h-7.66a1.572 1.572 0 0 0-1.57 1.57v4.527a1.571 1.571 0 0 0 1.3 1.546v2a4.447 4.447 0 0 0-4.362 4.445v27.5A9 9 0 0 0 0 74.908c0 5.156 4.525 9.351 10.088 9.351l37.707-.011a4.312 4.312 0 0 0 4.267-4.986l7.531 1.353a1.8 1.8 0 0 0 .317.028 1.786 1.786 0 0 0 1.768-1.521l.2-1.369a1.781 1.781 0 0 0-1.368-2l-2.655-.609 4.989-.917a1.784 1.784 0 0 0 1.434-2.079zm-10.77-18.24a5.283 5.283 0 0 1 1.661.267 5.336 5.336 0 0 1-.45 4.332h-2.539l.81-.812a.942.942 0 0 0-1.334-1.331l-.428.429a4.369 4.369 0 0 0-1.013-1.739 5.268 5.268 0 0 1 3.293-1.146zm-5.314-4.72a3.094 3.094 0 0 1 3.086 3.095v.094a7.158 7.158 0 0 0-2.689 1.6c-.124-.047-.25-.091-.38-.127a4.37 4.37 0 0 0-2.6-3.239 3.081 3.081 0 0 1 2.583-1.423zm-4.98-5.248a5.836 5.836 0 0 1 1.875.308 5.9 5.9 0 0 1-.233 4.351 5 5 0 0 0-1.207 1.673 4.446 4.446 0 0 0-.5.057 4.4 4.4 0 0 0-2 .913 4.986 4.986 0 0 0-.713-.989l2.16-2.165a.942.942 0 0 0-1.334-1.331L38.9 49.124a4.924 4.924 0 0 0-1.445-.429 5.88 5.88 0 0 1 5.763-4.755zM36 58.506h-.817a.941.941 0 0 0-1.753 0h-.961A.942.942 0 0 0 31 57.349l-.888.89a.938.938 0 0 0-.186.268h-1.915A7.452 7.452 0 0 1 26.8 54.7h14.949a7.452 7.452 0 0 1-1.208 3.8h-2a.938.938 0 0 0-.186-.268l-.888-.89A.942.942 0 0 0 36 58.506zm-2.189-5.686a3.083 3.083 0 0 1 5.957 0h-5.957zm1.927-11.584a7.45 7.45 0 0 1 1.779 3.327 7.759 7.759 0 0 0-1.2 1.715.936.936 0 0 0-.491-.139h-1.251a.942.942 0 0 0 0 1.884h1.1a7.8 7.8 0 0 0-.145.789 4.927 4.927 0 0 0-1.066.416 4.756 4.756 0 0 0-2.9-2.215V47a4.769 4.769 0 0 0-.378-1.207zm-17.03 8.5a2.843 2.843 0 0 1-.125-.472 2.876 2.876 0 0 1 2.34-3.318 2.906 2.906 0 0 1 .5-.043 2.847 2.847 0 0 1 1.715.572.942.942 0 0 0 1.349-.234A2.853 2.853 0 0 1 26.389 45a2.906 2.906 0 0 1 .5-.043 2.857 2.857 0 0 1 2.82 2.375 2.887 2.887 0 0 1 .042.488.942.942 0 0 0 .86.937 2.867 2.867 0 0 1 2.366 1.689 4.967 4.967 0 0 0-1.089 2.379h-5.375a1.6 1.6 0 0 0-1.48 1 7.189 7.189 0 0 0-6.7-.727 1.142 1.142 0 0 0-.638.64 7.218 7.218 0 0 0-.44 1.675 2.866 2.866 0 0 1 .958-4.494.942.942 0 0 0 .494-1.182zm2.808 8.512l.257.258H19.51a5.338 5.338 0 0 1-.173-3.778 5.3 5.3 0 0 1 5.8 1.715 9.307 9.307 0 0 0 .721 2.063h-1.42l-1.585-1.588a.942.942 0 0 0-1.334 1.331zm-4.012.258h-3.359a3.1 3.1 0 0 1 1.461-2.149 4.736 4.736 0 0 0 1.718 1.424 7.287 7.287 0 0 0 .176.725zM8 28.521h7.033v3.9H8zm5.727 5.779v1.971H9.3V34.3zM4.936 44.543h6.118a.942.942 0 1 0 0-1.884H4.936v-1.937a2.562 2.562 0 0 1 2.555-2.562h8.043a2.562 2.562 0 0 1 2.555 2.563v1.936H16.33a.942.942 0 1 0 0 1.884h1.759v.836a4.748 4.748 0 0 0-1.363 4.207v.01a4.761 4.761 0 0 0-2 4.731c.019.108.042.214.068.319a5 5 0 0 0-1.256.987H4.936zm0 12.974h7.513a4.942 4.942 0 0 0-.205.989h-.159a1.575 1.575 0 0 0-1.573 1.574 23.84 23.84 0 0 0 .408 4.4c-.271-.022-.548-.033-.831-.033a8.585 8.585 0 0 0-3.056.509c-1.272.5-1.623 1.215-1.7 1.709-.135.067-.267.138-.4.21zm11.93 11.573a3.567 3.567 0 0 1 .667.669H17.5a5.854 5.854 0 0 1-2.581-.818 6.79 6.79 0 0 1-1.081-.734.942.942 0 0 0-1.218 0 6.75 6.75 0 0 1-1.08.734 5.853 5.853 0 0 1-2.581.818h-.038a3.562 3.562 0 0 1 .667-.669.942.942 0 0 0-.479-1.671 4.5 4.5 0 0 1-1.773-.512 5.366 5.366 0 0 1 2.755-.575 5.872 5.872 0 0 1 2.675.523.943.943 0 0 0 .922 0 5.875 5.875 0 0 1 2.675-.523 5.366 5.366 0 0 1 2.755.575 4.5 4.5 0 0 1-1.773.512.942.942 0 0 0-.479 1.671zm-1.885 11.467l.032.175a4.291 4.291 0 0 0 .678 1.643h-5.6c-4.523 0-8.2-3.349-8.2-7.466a7.4 7.4 0 0 1 4.251-6.54 4.048 4.048 0 0 0 1.083.555 2.232 2.232 0 0 0-.317.931 1.535 1.535 0 0 0 .375 1.162 2.138 2.138 0 0 0 1.681.627 7.781 7.781 0 0 0 3.493-1.054q.412-.228.777-.48.364.251.777.48a7.784 7.784 0 0 0 3.489 1.053 2.138 2.138 0 0 0 1.68-.627 1.534 1.534 0 0 0 .375-1.162 2.232 2.232 0 0 0-.317-.931 4.056 4.056 0 0 0 1.084-.555 7.622 7.622 0 0 1 4.038 4.847l-6.663 2.531a4.308 4.308 0 0 0-2.716 4.811zm34.688.931a2.438 2.438 0 0 1-1.876.876h-.989l-.618-3.336a.942.942 0 0 0-1.853.343l.554 2.993h-3.24l-.417-2.254a.942.942 0 0 0-1.853.343l.354 1.913h-7.54l-.568-3.063a.942.942 0 0 0-1.853.343l.5 2.721H19.261a2.436 2.436 0 0 1-2.4-1.987l-.032-.175a2.424 2.424 0 0 1 1.529-2.705l3.7-1.407.276 1.489a.942.942 0 0 0 .925.771.955.955 0 0 0 .173-.016.942.942 0 0 0 .755-1.1l-.338-1.826 5.5-2.088a.942.942 0 0 0-.669-1.761l-2.558.972a9.547 9.547 0 0 0-5.005-5.878c-.077-.493-.428-1.207-1.7-1.709a8.585 8.585 0 0 0-3.056-.509 9.558 9.558 0 0 0-2.194.244v-.569a.941.941 0 0 0-1.524-.74 22.008 22.008 0 0 1-.243-2.983h30.685a.942.942 0 0 0 0-1.884H42.7a9.326 9.326 0 0 0 .939-4.085 1.6 1.6 0 0 0-1.446-1.594 2.483 2.483 0 0 1 1.284-.643 2.542 2.542 0 0 1 .434-.038 2.489 2.489 0 0 1 2.457 2.069 2.519 2.519 0 0 1 .036.426.942.942 0 0 0 .86.937 2.5 2.5 0 0 1 2.24 2.059 2.462 2.462 0 0 1-.007.868h-1.011a.942.942 0 0 0 0 1.884h7.322a21.715 21.715 0 0 1-.661 5.054l-5.106 3.014a4.325 4.325 0 0 0-5.695-2.838l-10.514 3.996a.942.942 0 0 0 .669 1.761l1.385-.526.43 2.322a.942.942 0 0 0 .925.771.954.954 0 0 0 .173-.016.942.942 0 0 0 .755-1.1l-.493-2.659 7.339-2.788a2.445 2.445 0 0 1 2.067.152 2.421 2.421 0 0 1 1.2 1.675l1.91 10.293a2.41 2.41 0 0 1-.523 1.988zm3.361-7.374a.942.942 0 0 0-.04 1.845L60 77.568l-.175 1.176-8.125-1.462-1.271-6.863 7.083-4.181.59 1.045-5.974 3.993a.942.942 0 0 0 .694 1.71l9.378-1.724.209 1.128z" class="prefix__cls-1" data-name="Caminho 67" transform="translate(0 -26.637)"/>
            </g>
        </g>
    </g>
</svg>
