<svg xmlns="http://www.w3.org/2000/svg" width="16.87" height="23.993" viewBox="0 0 16.87 23.993">
    <defs>
        <style>
            .prefix__cls-1{fill:#979797}
        </style>
    </defs>
    <g id="prefix__icon-map" transform="translate(-76)">
        <path id="prefix__Caminho_355" d="M84.435 0A8.442 8.442 0 0 0 76 8.435a8.318 8.318 0 0 0 1.265 4.428l6.6 10.8a.666.666 0 0 0 .478.323.7.7 0 0 0 .717-.337l6.617-10.9a8.319 8.319 0 0 0 1.193-4.314A8.442 8.442 0 0 0 84.435 0zm0 12.653a4.218 4.218 0 1 1 4.218-4.218 4.212 4.212 0 0 1-4.218 4.218z" class="prefix__cls-1" data-name="Caminho 355"/>
        <path id="prefix__Caminho_356" d="M256 0v4.218a4.218 4.218 0 0 1 0 8.435v11.34a.7.7 0 0 0 .623-.346l6.617-10.9a8.319 8.319 0 0 0 1.195-4.316A8.442 8.442 0 0 0 256 0z" class="prefix__cls-1" data-name="Caminho 356" transform="translate(-171.565)"/>
    </g>
</svg>
