<svg xmlns="http://www.w3.org/2000/svg" id="prefix__select-duvidas" width="18.849" height="11.133" viewBox="0 0 18.849 11.133">
    <g id="prefix__Grupo_60" data-name="Grupo 60">
        <path id="prefix__Caminho_403" fill="#606060" d="M18.548 101.629l-.617-.622a1.034 1.034 0 0 0-1.458 0l-7.044 7.043L2.377 101a1.034 1.034 0 0 0-1.458 0l-.618.618a1.032 1.032 0 0 0 0 1.458L8.7 111.5a1.054 1.054 0 0 0 .731.331 1.054 1.054 0 0 0 .729-.331l8.388-8.4a1.041 1.041 0 0 0 .3-.737 1.031 1.031 0 0 0-.3-.734z" data-name="Caminho 403" transform="translate(0 -100.698)"/>
    </g>
</svg>
