<svg xmlns="http://www.w3.org/2000/svg" width="30.051" height="27.093" viewBox="0 0 30.051 27.093">
    <defs>
        <style>
            .prefix__cls-1{fill:#ffffff}
        </style>
    </defs>
    <g id="prefix__aumentar-pedidos" transform="translate(0 -25.197)">
        <path id="prefix__Caminho_393" d="M28.049 162.925l-2.67-7.125H4.672L2 162.925a2.641 2.641 0 0 0 0 5.124l2.67 7.181h20.71l2.671-7.181a2.641 2.641 0 0 0 0-5.124zm-9.749-5.361l-.7 1.761h-5.148l-.7-1.761zm-12.411 0h3.962l1.409 3.522h7.531l1.409-3.522h3.959l1.981 5.282H3.912zm18.268 15.906H5.894l-1.986-5.341h22.235zm3.253-7.1H2.641a.88.88 0 0 1 0-1.761H27.41a.88.88 0 0 1 0 1.761z" class="prefix__cls-1" data-name="Caminho 393" transform="translate(0 -122.94)"/>
        <path id="prefix__Caminho_394" d="M172.618 28.461a3.048 3.048 0 0 1 .632-2.029l-.01.01L172 25.2a4.676 4.676 0 0 0-1.138 3.264 3.048 3.048 0 0 1-.632 2.029l.01-.01 1.245 1.245a4.676 4.676 0 0 0 1.138-3.264z" class="prefix__cls-1" data-name="Caminho 394" transform="translate(-160.234)"/>
        <path id="prefix__Caminho_395" d="M232.618 28.461a3.048 3.048 0 0 1 .632-2.029l-.01.01L232 25.2a4.676 4.676 0 0 0-1.138 3.264 3.048 3.048 0 0 1-.632 2.029l.01-.01 1.245 1.245a4.676 4.676 0 0 0 1.138-3.264z" class="prefix__cls-1" data-name="Caminho 395" transform="translate(-216.712)"/>
        <path id="prefix__Caminho_396" d="M292.618 28.461a3.048 3.048 0 0 1 .632-2.029l-.01.01L292 25.2a4.676 4.676 0 0 0-1.138 3.264 3.048 3.048 0 0 1-.632 2.029l.01-.01 1.245 1.245a4.676 4.676 0 0 0 1.138-3.264z" class="prefix__cls-1" data-name="Caminho 396" transform="translate(-273.191)"/>
    </g>
</svg>
