<svg xmlns="http://www.w3.org/2000/svg" id="prefix__chef" width="57.082" height="57.082" viewBox="0 0 57.082 57.082">
    <defs>
        <style>
            .prefix__cls-1{fill:#484b4a}
        </style>
    </defs>
    <g id="prefix__Grupo_47" data-name="Grupo 47">
        <g id="prefix__Grupo_46" data-name="Grupo 46">
            <path id="prefix__Caminho_60" d="M158.127 193.3a14.85 14.85 0 0 0-5.006.808 7.719 7.719 0 0 1-2.562.489 8.9 8.9 0 0 1-3.058-.884 18.749 18.749 0 0 0-7.537-1.71 1.3 1.3 0 1 0 0 2.595 16.309 16.309 0 0 1 6.564 1.52 10.892 10.892 0 0 0 4.031 1.074 10.176 10.176 0 0 0 3.342-.609 12.261 12.261 0 0 1 4.225-.688 1.3 1.3 0 1 0 0-2.595z" class="prefix__cls-1" data-name="Caminho 60" transform="translate(-121.802 -168.648)"/>
            <path id="prefix__Caminho_61" d="M40.816 0c-4.436 0-10.08 1.636-15.21 4.375a29.256 29.256 0 0 0-9.34-1.78C6.081 2.595 0 8.415 0 18.162c0 6.853 4.783 12.151 10.41 14.4l-.032 19.326a5.189 5.189 0 0 0 5.189 5.2h25.947a5.194 5.194 0 0 0 5.186-5.196V29.949c5.613-2.251 10.378-7.541 10.378-14.381C57.082 5.82 51 0 40.816 0zm3.293 51.892a2.6 2.6 0 0 1-2.595 2.595H15.568a2.593 2.593 0 0 1-2.595-2.6l.008-5.186h31.128zm-3.293-23.351a1.3 1.3 0 0 0 0 2.595 15.1 15.1 0 0 0 3.293-.387v13.36H12.986L13 33.35a15.085 15.085 0 0 0 3.262.38 1.3 1.3 0 0 0 0-2.595c-6.466 0-13.671-5.327-13.671-12.973 0-11.709 9.56-12.973 13.671-12.973 7.505 0 17.808 4.917 22.964 10.961a1.3 1.3 0 0 0 1.974-1.685 35.774 35.774 0 0 0-12.366-8.8 30.171 30.171 0 0 1 11.982-3.07c4.111 0 13.671 1.264 13.671 12.973 0 7.646-7.205 12.973-13.671 12.973z" class="prefix__cls-1" data-name="Caminho 61"/>
        </g>
    </g>
</svg>
