<svg xmlns="http://www.w3.org/2000/svg" width="63.427" height="58.251" viewBox="0 0 63.427 58.251">
    <path id="prefix__da_casa" fill="#05cb95" d="M60.721 29.769h-2.2a26.593 26.593 0 0 0-2.433-9.616.928.928 0 1 0-1.683.782 24.752 24.752 0 0 1 2.256 8.835H14.16a.928.928 0 0 0 0 1.855h46.561a.852.852 0 0 1 .851.851v1.132a.852.852 0 0 1-.851.851H2.707a.852.852 0 0 1-.851-.851v-1.132a.852.852 0 0 1 .851-.851h7.128a.928.928 0 1 0 0-1.855H6.768A25 25 0 0 1 30.045 6.506h.01q.379-.025.749-.038l.148-.005.262-.007c.166 0 .333-.006.5-.006.222 0 .443 0 .664.01l.2.006c.17.006.34.015.51.024l.271.015a25.021 25.021 0 0 1 18.982 10.813.928.928 0 0 0 1.53-1.051 26.879 26.879 0 0 0-18.353-11.4 4.517 4.517 0 0 0 .722-2.449c0-.5-.225-1.434-1.732-1.988a9.3 9.3 0 0 0-5.589 0c-1.507.555-1.731 1.484-1.731 1.988a4.523 4.523 0 0 0 .719 2.444 26.865 26.865 0 0 0-23 24.907h-2.2A2.71 2.71 0 0 0 0 32.476v1.132a2.71 2.71 0 0 0 2.707 2.707h10a11.5 11.5 0 0 0-1.425 1.15l-.018.017a.841.841 0 0 0-.08.086l-4.41 5.35a2.558 2.558 0 0 0-3.492.724L1.549 46.2a2.567 2.567 0 0 0 .681 3.558l11.854 8.053a2.545 2.545 0 0 0 1.435.444 2.6 2.6 0 0 0 .487-.046 2.544 2.544 0 0 0 1.639-1.079l1.732-2.555a2.566 2.566 0 0 0-.681-3.558l-.068-.046a6 6 0 0 1 3.122-1.884 20.39 20.39 0 0 1 7.5.125 17.723 17.723 0 0 0 7.563-.407l3.416-.944a17.589 17.589 0 0 0 6.225-3.149l.041-.034 5.865-5.195a2.863 2.863 0 0 0 .872-3.164h7.484a2.71 2.71 0 0 0 2.707-2.707v-1.136a2.71 2.71 0 0 0-2.707-2.707zM31.714 1.856a4.346 4.346 0 0 1 2.67.6A2.671 2.671 0 0 1 33.2 4.637c-.182-.01-.362-.017-.542-.024l-.181-.006c-.259-.008-.514-.012-.765-.012-.178 0-.359 0-.541.006l-.265.007-.318.011-.364.017a2.671 2.671 0 0 1-1.182-2.179 4.346 4.346 0 0 1 2.67-.6zm6.654 34.907a3.061 3.061 0 0 0-.245-.448h8.9l-3.848 2.547-5.485 1.587h-.186a3.156 3.156 0 0 0 .865-3.69zm-10.061-.448l-1.339.279-1.035-.279zM17.843 53.53l-1.732 2.555a.707.707 0 0 1-.983.188L3.273 48.22a.707.707 0 0 1-.188-.981l1.732-2.555a.7.7 0 0 1 .452-.3.708.708 0 0 1 .135-.013.7.7 0 0 1 .4.123l.64.435 11.214 7.618a.708.708 0 0 1 .188.982zm33.383-15.516a.814.814 0 0 0-.064.052l-5.872 5.2a15.745 15.745 0 0 1-5.551 2.8l-3.416.944a15.841 15.841 0 0 1-6.765.366 22.091 22.091 0 0 0-8.224-.1 7.881 7.881 0 0 0-4.245 2.644l-8.77-5.957 4.256-5.169a8.735 8.735 0 0 1 5.607-2.478h.038a6.994 6.994 0 0 1 1.927.359l.409.113 6.144 1.656a.928.928 0 0 0 .431.012l8.046-1.678a1.383 1.383 0 0 1 1.052.2 1.246 1.246 0 0 1 .442.528 1.3 1.3 0 0 1-.6 1.678l-2.745 1.454a.928.928 0 0 0 .454 1.747l4.07-.085a.935.935 0 0 0 .238-.036l5.738-1.66a.929.929 0 0 0 .255-.118l5.789-3.832c.486-.3 1.132-.547 1.476-.039a1.1 1.1 0 0 1-.12 1.4zm0 0" data-name="da casa"/>
</svg>
