<svg xmlns="http://www.w3.org/2000/svg" width="50.273" height="57.755" viewBox="0 0 50.273 57.755">
    <defs>
        <style>
            .prefix__cls-1{fill:#373938}
        </style>
    </defs>
    <g id="prefix__executivo" transform="translate(-33.165)">
        <g id="prefix__Grupo_41" data-name="Grupo 41" transform="translate(51.363 4.266)">
            <g id="prefix__Grupo_40" data-name="Grupo 40">
                <path id="prefix__Caminho_57" d="M210.616 37.819h-12.024a4.11 4.11 0 0 0-4.106 4.106v.484a4.11 4.11 0 0 0 4.106 4.106h12.025a4.11 4.11 0 0 0 4.106-4.106v-.484a4.11 4.11 0 0 0-4.107-4.106zm2.407 4.59a2.41 2.41 0 0 1-2.407 2.407h-12.024a2.41 2.41 0 0 1-2.407-2.407v-.484a2.41 2.41 0 0 1 2.407-2.407h12.025a2.41 2.41 0 0 1 2.407 2.407z" class="prefix__cls-1" data-name="Caminho 57" transform="translate(-194.486 -37.819)"/>
            </g>
        </g>
        <g id="prefix__Grupo_43" data-name="Grupo 43" transform="translate(33.165)">
            <g id="prefix__Grupo_42" data-name="Grupo 42">
                <path id="prefix__Caminho_58" d="M83.314 17.788l-.989-2.206a.849.849 0 0 0-1.55.695l.964 2.151V54.9a1.155 1.155 0 0 1-1.154 1.154H47.8V18.246a.849.849 0 0 0-.055-.3L41.6 1.7h32.639l4.1 9.151a.849.849 0 1 0 1.55-.695L75.564.5a.849.849 0 0 0-.775-.5H40.36c-.029 0-.057 0-.085.005h-.05l-.045.018-.028.007-.039.011h-.008l-.02.007-.024.012L40 .085l-.018.009-.007.006a.833.833 0 0 0-.082.049h-.006l-.014.01c-.018.013-.037.027-.054.042L39.8.226l-.016.015-.03.031L39.73.3l-.023.028-.015.02-.01.013-.008.011c-.014.021-.027.042-.039.064v.007l-.007.013-.007.014q-.021.03-.039.07l-.006.014-6.324 17.3a1.411 1.411 0 0 0-.086.485V54.9a2.856 2.856 0 0 0 2.852 2.852h44.568a2.856 2.856 0 0 0 2.852-2.852V18.367a1.409 1.409 0 0 0-.124-.579zM39.523 56.056h-3.506a1.155 1.155 0 0 1-1.153-1.156V18.4l4.659-12.752zm6.581 0h-4.882V5.495L46.1 18.4z" class="prefix__cls-1" data-name="Caminho 58" transform="translate(-33.165)"/>
            </g>
        </g>
        <g id="prefix__Grupo_45" data-name="Grupo 45" transform="translate(52.146 33.108)">
            <g id="prefix__Grupo_44" data-name="Grupo 44">
                <path id="prefix__Caminho_59" d="M224.986 293.5H212.23a.849.849 0 1 0 0 1.7h12.47v11.08h-21.569V295.2h2.984a.849.849 0 1 0 0-1.7h-3.268a1.417 1.417 0 0 0-1.416 1.416v11.643a1.417 1.417 0 0 0 1.416 1.416h22.138a1.417 1.417 0 0 0 1.416-1.416V294.92a1.417 1.417 0 0 0-1.415-1.42z" class="prefix__cls-1" data-name="Caminho 59" transform="translate(-201.432 -293.504)"/>
            </g>
        </g>
    </g>
</svg>
