<svg xmlns="http://www.w3.org/2000/svg" width="17.845" height="17.845" viewBox="0 0 17.845 17.845">
  <g id="box" transform="translate(-93.332 -23.332)">
    <path id="Caminho_1364" data-name="Caminho 1364" d="M107.121,23.332H97.388a4.056,4.056,0,0,0-4.056,4.056v9.733a4.056,4.056,0,0,0,4.056,4.056h9.733a4.056,4.056,0,0,0,4.056-4.056V27.388a4.056,4.056,0,0,0-4.056-4.056Zm-3.244,1.622v5.678h-3.245V24.954Zm5.678,12.167a2.434,2.434,0,0,1-2.433,2.433H97.388a2.434,2.434,0,0,1-2.433-2.433V27.388a2.434,2.434,0,0,1,2.433-2.433H99.01v5.678a1.622,1.622,0,0,0,1.622,1.622h3.245a1.622,1.622,0,0,0,1.622-1.622V24.954h1.622a2.434,2.434,0,0,1,2.433,2.433Z" fill="#373938"/>
    <path id="Caminho_1365" data-name="Caminho 1365" d="M190.721,396.67h-3.244a.811.811,0,1,0,0,1.622h3.244a.811.811,0,1,0,0-1.622Z" transform="translate(-90.089 -360.36)" fill="#373938"/>
  </g>
</svg>
