<svg xmlns="http://www.w3.org/2000/svg" width="17.872" height="23.288" viewBox="0 0 17.872 23.288">
  <g id="contrato" transform="translate(-165.2 -39.203)">
    <path id="Caminho_1363" data-name="Caminho 1363" d="M165.2,39.2V62.491h13.54V58.7a.574.574,0,0,1,.542-.542h3.791V39.2Zm11.864,2.708a.55.55,0,0,1,.542.288.566.566,0,0,1-.085.618l-3.791,4.333a.561.561,0,0,1-.728.076L170.836,45.6a.542.542,0,1,1,.643-.872l1.769,1.329,3.461-3.96a.548.548,0,0,1,.355-.186Zm-8.615,8.133h11.373a.542.542,0,0,1,0,1.083H168.45a.542.542,0,1,1,0-1.083Zm0,4.333h11.373a.542.542,0,0,1,0,1.083H168.45a.542.542,0,1,1,0-1.083Zm0,4.333h8.665a.542.542,0,1,1,0,1.083H168.45a.542.542,0,1,1,0-1.083Zm11.373.533V61.95l2.708-2.708Z" fill="#fff"/>
  </g>
</svg>
