<svg xmlns="http://www.w3.org/2000/svg" width="18.123" height="18.118" viewBox="0 0 18.123 18.118">
  <g id="error" transform="translate(-122.588 -52.636)">
    <path id="Caminho_2097" data-name="Caminho 2097" d="M136.939,70.754H126.352a3.764,3.764,0,0,1-3.368-5.447l5.3-10.591h0a3.764,3.764,0,0,1,6.734,0l5.3,10.591h0a3.764,3.764,0,0,1-3.375,5.447Zm-5.293-16.73a2.326,2.326,0,0,0-2.12,1.31l-5.294,10.593a2.37,2.37,0,0,0,2.12,3.432H136.94a2.37,2.37,0,0,0,2.12-3.43l-5.294-10.593a2.327,2.327,0,0,0-2.12-1.313Z" transform="translate(0)" fill="#eb3941"/>
    <path id="Caminho_2098" data-name="Caminho 2098" d="M333.2,233.077a.7.7,0,0,1-.7-.7V228.2a.7.7,0,1,1,1.394,0v4.182a.7.7,0,0,1-.7.7Z" transform="translate(-201.551 -167.899)" fill="#eb3941"/>
    <path id="Caminho_2099" data-name="Caminho 2099" d="M325.841,386.046A1.046,1.046,0,1,1,324.8,385a1.046,1.046,0,0,1,1.046,1.046" transform="translate(-193.15 -319.126)" fill="#eb3941"/>
  </g>
</svg>
