<svg id="interrogacao" xmlns="http://www.w3.org/2000/svg" width="16" height="15.999" viewBox="0 0 16 15.999">
  <g id="Grupo_1" data-name="Grupo 1">
    <path id="Caminho_1" data-name="Caminho 1" d="M8,0a8,8,0,1,0,8,8A8,8,0,0,0,8,0ZM8,14.694A6.7,6.7,0,1,1,14.7,8,6.695,6.695,0,0,1,8,14.694Z" fill="#05cb95"/>
    <path id="Caminho_2" data-name="Caminho 2" d="M13.336,19.337A1.267,1.267,0,1,0,14.589,20.6,1.2,1.2,0,0,0,13.336,19.337Z" transform="translate(-5.543 -8.862)" fill="#05cb95"/>
    <path id="Caminho_3" data-name="Caminho 3" d="M12.775,6.092a4.825,4.825,0,0,0-2.326.57l.474,1.519A2.633,2.633,0,0,1,12.3,7.763c.7.015,1.018.349,1.018.836a2.684,2.684,0,0,1-.809,1.463,3.021,3.021,0,0,0-.821,2.173l.014.362h1.853v-.251a2.457,2.457,0,0,1,.71-1.742,3.47,3.47,0,0,0,1.2-2.341C15.463,7.108,14.615,6.092,12.775,6.092Z" transform="translate(-4.789 -2.792)" fill="#05cb95"/>
  </g>
</svg>
