<svg xmlns="http://www.w3.org/2000/svg" width="20.536" height="19.753" viewBox="0 0 20.536 19.753">
  <g id="esconder-senha" transform="translate(0 0)">
    <path id="União_1" data-name="União 1" d="M4.15,19.632a.749.749,0,0,1-.22-1.037l1.524-2.347A11.406,11.406,0,0,1,0,9.735a10.959,10.959,0,0,1,10.268-7.7,10.306,10.306,0,0,1,3.916.77l1.6-2.462a.75.75,0,1,1,1.257.817l-1.5,2.316a11.455,11.455,0,0,1,5,6.261,10.96,10.96,0,0,1-10.268,7.7,10.305,10.305,0,0,1-3.42-.581l-1.66,2.557a.75.75,0,0,1-1.038.221Zm6.118-4.763a5.134,5.134,0,0,0,3.588-8.806L12.4,8.3a2.568,2.568,0,0,1-2.572,3.96L8.372,14.507A5.122,5.122,0,0,0,10.268,14.869ZM5.134,9.735a5.124,5.124,0,0,0,1.94,4.019l1.411-2.173-.031-.031a2.568,2.568,0,0,1,2.777-4.2l1.411-2.173A5.136,5.136,0,0,0,5.134,9.735Z" fill="#cad1d1"/>
  </g>
</svg>
