<svg id="ver-senha" xmlns="http://www.w3.org/2000/svg" width="20.156" height="15.117" viewBox="0 0 20.156 15.117">
  <path id="Caminho_328" data-name="Caminho 328" d="M10.078,64.444A10.756,10.756,0,0,0,0,72a10.756,10.756,0,0,0,10.078,7.559A10.756,10.756,0,0,0,20.156,72,10.756,10.756,0,0,0,10.078,64.444Zm0,12.6A5.039,5.039,0,1,1,15.117,72,5.039,5.039,0,0,1,10.078,77.042Z" transform="translate(0 -64.444)" fill="#05cb95"/>
  <path id="Caminho_329" data-name="Caminho 329" d="M197.635,194.072a2.52,2.52,0,1,1-3.563,0,2.52,2.52,0,0,1,3.563,0" transform="translate(-185.775 -188.295)" fill="#05cb95"/>
</svg>
