<svg xmlns="http://www.w3.org/2000/svg" id="pagamento-feito" width="47.417" height="47.417" viewBox="0 0 47.417 47.417">
    <defs>
        <style>
            .cls-1{fill:#fff}
        </style>
    </defs>
    <g id="Grupo_66" data-name="Grupo 66" transform="translate(11.406 15.315)">
        <g id="Grupo_65" data-name="Grupo 65">
            <path id="Caminho_116" d="M147.3 165.963a1.922 1.922 0 0 0-2.717-.072l-12.272 11.639-5.853-6.01a1.922 1.922 0 0 0-2.758 2.68l7.177 7.368a1.923 1.923 0 0 0 2.7.054l13.648-12.944a1.922 1.922 0 0 0 .075-2.715z" class="cls-1" data-name="Caminho 116" transform="translate(-123.158 -165.364)"/>
        </g>
    </g>
    <g id="Grupo_68" data-name="Grupo 68">
        <g id="Grupo_67" data-name="Grupo 67">
            <path id="Caminho_117" d="M23.708 0a23.708 23.708 0 1 0 23.709 23.708A23.735 23.735 0 0 0 23.708 0zm0 43.572a19.864 19.864 0 1 1 19.864-19.864 19.886 19.886 0 0 1-19.864 19.864z" class="cls-1" data-name="Caminho 117"/>
        </g>
    </g>
</svg>
