<svg xmlns="http://www.w3.org/2000/svg" width="41.801" height="58.158" viewBox="0 0 41.801 58.158">
  <g id="doc" transform="translate(-72)">
    <path id="Caminho_415" data-name="Caminho 415" d="M109.712,58.158H76.089A4.094,4.094,0,0,1,72,54.068V4.089A4.094,4.094,0,0,1,76.089,0h33.622A4.094,4.094,0,0,1,113.8,4.089V54.068A4.094,4.094,0,0,1,109.712,58.158ZM76.089,3.635a.455.455,0,0,0-.454.454V54.068a.455.455,0,0,0,.454.454h33.622a.455.455,0,0,0,.454-.454V4.089a.455.455,0,0,0-.454-.454Z" transform="translate(0 0)" fill="#fff"/>
    <path id="Caminho_416" data-name="Caminho 416" d="M301.452,395.635h-3.635a1.817,1.817,0,0,1,0-3.635h3.635a1.817,1.817,0,1,1,0,3.635Z" transform="translate(-198.556 -347.473)" fill="#fff"/>
    <path id="Caminho_417" data-name="Caminho 417" d="M179.992,187.635H161.817a1.817,1.817,0,0,1,0-3.635h18.174a1.817,1.817,0,1,1,0,3.635Z" transform="translate(-78.004 -163.1)" fill="#fff"/>
    <path id="Caminho_418" data-name="Caminho 418" d="M179.992,267.635H161.817a1.817,1.817,0,1,1,0-3.635h18.174a1.817,1.817,0,1,1,0,3.635Z" transform="translate(-78.004 -234.012)" fill="#fff"/>
  </g>
</svg>
