<svg id="interrogacao" xmlns="http://www.w3.org/2000/svg" width="16.521" height="16.521" viewBox="0 0 16.521 16.521">
  <g id="Grupo_123" data-name="Grupo 123">
    <g id="Grupo_122" data-name="Grupo 122">
      <circle id="Elipse_14" data-name="Elipse 14" cx="0.807" cy="0.807" r="0.807" transform="translate(7.454 11.406)" fill="#5fc8f8

"/>
      <path id="Caminho_178" data-name="Caminho 178" d="M8.26,0a8.26,8.26,0,1,0,8.26,8.26A8.256,8.256,0,0,0,8.26,0Zm0,15.23a6.97,6.97,0,1,1,6.97-6.97A6.966,6.966,0,0,1,8.26,15.23Z" fill="#5fc8f8

"/>
      <path id="Caminho_179" data-name="Caminho 179" d="M178.581,128.5A2.584,2.584,0,0,0,176,131.081a.645.645,0,1,0,1.291,0,1.291,1.291,0,1,1,1.291,1.291.645.645,0,0,0-.645.645v1.613a.645.645,0,0,0,1.291,0v-1.05a2.582,2.582,0,0,0-.645-5.081Z" transform="translate(-170.321 -124.354)" fill="#5fc8f8

"/>
    </g>
  </g>
</svg>
