<svg xmlns="http://www.w3.org/2000/svg" id="add" width="48.849" height="43.255" viewBox="0 0 48.849 43.255">
    <defs>
        <style>
            .cls-1{fill:#05cb95}
        </style>
    </defs>
    <g id="Grupo_17" data-name="Grupo 17">
        <g id="Grupo_16" data-name="Grupo 16">
            <circle id="Elipse_1" cx="3.356" cy="3.356" r="3.356" class="cls-1" data-name="Elipse 1" transform="translate(15.055 10.674)"/>
            <path id="Caminho_43" d="M45.959 50.382a10.335 10.335 0 0 0-5.78-2.75v-17.06a6.711 6.711 0 0 0-1.911-4.661A6.513 6.513 0 0 0 33.607 24H6.572a6.711 6.711 0 0 0-4.661 1.911A6.513 6.513 0 0 0 0 30.572V58.4a6.711 6.711 0 0 0 1.911 4.66 6.513 6.513 0 0 0 4.661 1.911h26.149a9.861 9.861 0 0 0 13.238-14.589zM2.47 30.572a4.138 4.138 0 0 1 4.1-4.1h27.037a4.138 4.138 0 0 1 4.1 4.1v14.543l-6.9-6.852a1.252 1.252 0 0 0-1.771 0L18.644 48.7l-7.038-7.085a1.252 1.252 0 0 0-1.771 0L2.47 49.077zm4.056 31.975V62.5a4.09 4.09 0 0 1-2.89-1.212A4.254 4.254 0 0 1 2.47 58.4v-5.827l8.3-8.3 7.038 7.038a1.3 1.3 0 0 0 1.771 0l10.392-10.438 6.805 6.852-.419.14a4.329 4.329 0 0 0-.606.186c-.186.047-.373.14-.559.186a1.4 1.4 0 0 0-.373.186 4.331 4.331 0 0 0-.466.233l-.7.419c-.14.093-.233.14-.373.233-.093.047-.14.093-.233.14a5.624 5.624 0 0 0-1.119.979 9.86 9.86 0 0 0-2.89 6.992 10.247 10.247 0 0 0 .233 2.051c.047.186.093.326.14.513.14.466.28.932.466 1.4v.047a8.55 8.55 0 0 0 .606 1.119zm37.615.047a7.373 7.373 0 0 1-10.3.093c-.186-.186-.373-.42-.559-.606-.14-.14-.28-.326-.42-.466a4.426 4.426 0 0 1-.466-.792c-.093-.186-.186-.326-.28-.513a3.937 3.937 0 0 1-.233-.792c-.047-.186-.14-.419-.186-.606a7.715 7.715 0 0 1-.14-1.492A7.482 7.482 0 0 1 33.7 52.2a7.285 7.285 0 0 1 5.22-2.144 7.482 7.482 0 0 1 5.22 2.144 7.206 7.206 0 0 1 2.144 5.22 7.455 7.455 0 0 1-2.143 5.174z" class="cls-1" data-name="Caminho 43" transform="translate(0 -24)"/>
            <path id="Caminho_44" d="M297.062 268.5h-2.843v-2.843a1.258 1.258 0 0 0-2.517 0v2.843h-2.843a1.258 1.258 0 0 0 0 2.517h2.841v2.843a1.258 1.258 0 1 0 2.517 0v-2.843h2.843a1.258 1.258 0 1 0 0-2.517z" class="cls-1" data-name="Caminho 44" transform="translate(-254.087 -236.387)"/>
        </g>
    </g>
</svg>
