<svg id="identificação" xmlns="http://www.w3.org/2000/svg" width="57.622" height="57.622" viewBox="0 0 57.622 57.622">
  <path id="Caminho_912" data-name="Caminho 912" d="M17.6,21.207a9.6,9.6,0,1,1,9.6-9.6A9.613,9.613,0,0,1,17.6,21.207ZM17.6,5.6a6,6,0,1,0,6,6A6.008,6.008,0,0,0,17.6,5.6Z" transform="translate(11.207 2.802)" fill="#fff"/>
  <path id="Caminho_913" data-name="Caminho 913" d="M40.614,31.207a1.8,1.8,0,0,1-1.8-1.8v-6a7.812,7.812,0,0,0-7.8-7.8H15.4a7.812,7.812,0,0,0-7.8,7.8v6a1.8,1.8,0,0,1-3.6,0v-6A11.418,11.418,0,0,1,15.4,12H31.01a11.418,11.418,0,0,1,11.4,11.4v6A1.8,1.8,0,0,1,40.614,31.207Z" transform="translate(5.604 16.811)" fill="#fff"/>
  <path id="Caminho_914" data-name="Caminho 914" d="M1.8,15.606a1.8,1.8,0,0,1-1.8-1.8V6.6A6.608,6.608,0,0,1,6.6,0h7.2a1.8,1.8,0,0,1,0,3.6H6.6a3.005,3.005,0,0,0-3,3v7.2A1.8,1.8,0,0,1,1.8,15.606Z" fill="#fff"/>
  <path id="Caminho_915" data-name="Caminho 915" d="M13.805,33.106H6.6A6.608,6.608,0,0,1,0,26.5V19.3a1.8,1.8,0,0,1,3.6,0v7.2a3.005,3.005,0,0,0,3,3h7.2a1.8,1.8,0,1,1,0,3.6Z" transform="translate(0 24.516)" fill="#fff"/>
  <path id="Caminho_916" data-name="Caminho 916" d="M31.305,15.606a1.8,1.8,0,0,1-1.8-1.8V6.6a3.005,3.005,0,0,0-3-3H19.3a1.8,1.8,0,0,1,0-3.6h7.2a6.608,6.608,0,0,1,6.6,6.6v7.2A1.8,1.8,0,0,1,31.305,15.606Z" transform="translate(24.516)" fill="#fff"/>
  <path id="Caminho_917" data-name="Caminho 917" d="M26.5,33.106H19.3a1.8,1.8,0,1,1,0-3.6h7.2a3.005,3.005,0,0,0,3-3V19.3a1.8,1.8,0,1,1,3.6,0v7.2A6.608,6.608,0,0,1,26.5,33.106Z" transform="translate(24.516 24.516)" fill="#fff"/>
</svg>
