<svg width="36" height="24" viewBox="0 0 36 24" fill="none" xmlns="http://www.w3.org/2000/svg">
<path d="M23.6987 1.3105e-06C21.4034 -0.00109251 19.16 0.682561 17.2555 1.96351C17.1243 2.05314 16.2181 2.70044 16.1783 2.73198C14.6729 3.86394 13.6621 4.0598 12.2778 3.7129C12.1932 3.69133 11.7965 3.55523 11.672 3.50709C10.3791 3.02031 8.98829 2.85099 7.61639 3.01336C6.2445 3.17572 4.93162 3.66504 3.7881 4.44018C2.64459 5.21531 1.70385 6.25362 1.04495 7.46784C0.386047 8.68206 0.0282426 10.0367 0.00160487 11.4179C-0.0250329 12.7991 0.280274 14.1666 0.891867 15.4053C1.50346 16.644 2.40347 17.7178 3.51625 18.5365C4.62902 19.3551 5.92206 19.8947 7.28668 20.1098C8.65129 20.325 10.0476 20.2094 11.3583 19.7728C13.423 19.1554 14.5434 19.3247 15.8397 20.2392C16.0986 20.4218 16.7227 20.8218 16.8521 20.9164C18.3275 21.9991 20.0385 22.7166 21.8447 23.0103C23.651 23.304 25.5011 23.1654 27.2435 22.606C28.9859 22.0465 30.5708 21.082 31.8685 19.7917C33.1661 18.5014 34.1395 16.9218 34.7088 15.1827C35.2781 13.4435 35.4271 11.5941 35.1436 9.78624C34.8601 7.97835 34.1521 6.26338 33.0778 4.78192C32.0035 3.30047 30.5934 2.09472 28.9631 1.2635C27.3328 0.432294 25.5287 -0.000706577 23.6987 1.3105e-06Z" fill="#007858"/>
<path d="M19.5211 13.3706C19.1915 13.6951 18.7616 13.8983 18.3016 13.9471C17.8417 13.996 17.3787 13.8875 16.9883 13.6395L16.2198 14.8595C16.8856 15.2802 17.674 15.4639 18.4572 15.3807C19.2404 15.2976 19.9726 14.9525 20.5352 14.4014L19.5211 13.3706ZM18.1369 8.40129C17.5022 8.39121 16.8767 8.55399 16.3274 8.87219C15.7781 9.1904 15.3258 9.65204 15.0188 10.2077C14.7118 10.7633 14.5618 11.392 14.5848 12.0263C14.6078 12.6607 14.8029 13.2769 15.1493 13.8088L21.4863 11.1001C21.308 10.3416 20.8817 9.66437 20.275 9.17553C19.6683 8.68669 18.9159 8.41423 18.1369 8.40129ZM16.0373 12.1159C15.9893 11.6775 16.0836 11.2353 16.3061 10.8546C16.5287 10.4739 16.8677 10.1748 17.2731 10.0015C17.6786 9.82813 18.1291 9.78971 18.558 9.89189C18.987 9.99407 19.3718 10.2314 19.6556 10.569L16.0373 12.1159ZM23.4763 6.82617V13.5798L24.6481 14.0661L24.0954 15.3939L22.9336 14.9126C22.6997 14.8125 22.5009 14.6449 22.3626 14.4312C22.2083 14.1825 22.1303 13.894 22.1386 13.6013V6.82617H23.4763ZM13.2721 6.82617V13.5798L14.4339 14.0661L13.8812 15.3939L12.7194 14.9126C12.4933 14.8117 12.3013 14.6474 12.1667 14.4395C12.0117 14.191 11.9332 13.9024 11.941 13.6096V6.82617H13.2721Z" fill="white"/>
<path d="M29.2424 10.0429C29.4859 10.1603 29.7039 10.3246 29.8839 10.5263C30.0639 10.728 30.2024 10.9632 30.2915 11.2184C30.3806 11.4737 30.4185 11.7439 30.4031 12.0138C30.3877 12.2838 30.3193 12.548 30.2018 12.7914L31.498 13.4139C31.8489 12.6821 31.9345 11.8511 31.7401 11.0631C31.5457 10.2752 31.0835 9.57935 30.4325 9.09471C29.7816 8.61008 28.9824 8.3668 28.1718 8.40654C27.3612 8.44629 26.5897 8.76657 25.9893 9.31256L26.9586 10.3765C27.2622 10.0988 27.6421 9.91852 28.0493 9.85905C28.4564 9.79958 28.872 9.86361 29.2424 10.0429Z" fill="#C7D540"/>
<path d="M27.4582 13.7569C26.9662 13.5199 26.5883 13.0974 26.4075 12.5821C26.2267 12.0667 26.2578 11.5007 26.4939 11.0083L25.1976 10.3842C24.8502 11.115 24.7668 11.9437 24.9618 12.729C25.1566 13.5144 25.6178 14.208 26.2665 14.6916C26.9153 15.1752 27.7117 15.4189 28.52 15.3814C29.3283 15.3438 30.0986 15.0272 30.6997 14.4855L29.7304 13.4232C29.4276 13.6982 29.0498 13.8767 28.6451 13.9361C28.2405 13.9955 27.8273 13.9331 27.4582 13.7569ZM10.6165 13.8548V11.8996C10.6165 11.2102 10.4121 10.5363 10.0291 9.96313C9.64613 9.38994 9.10177 8.94319 8.46487 8.67938C7.82798 8.41557 7.12716 8.34655 6.45103 8.48104C5.77491 8.61553 5.15385 8.94749 4.66639 9.43495C4.17893 9.92241 3.84697 10.5435 3.71248 11.2196C3.57799 11.8957 3.64702 12.5965 3.91083 13.2334C4.17464 13.8703 4.62139 14.4147 5.19458 14.7977C5.76777 15.1807 6.44165 15.3851 7.13102 15.3851C7.6714 15.3852 8.20438 15.2596 8.68789 15.0183L8.12689 13.7071C7.81279 13.8807 7.45878 13.9694 7.0999 13.9643C6.74101 13.9592 6.38969 13.8604 6.08068 13.6778C5.77168 13.4952 5.5157 13.2351 5.33807 12.9232C5.16044 12.6114 5.06733 12.2585 5.06793 11.8996C5.06606 11.5624 5.14759 11.23 5.30528 10.9319C5.44407 10.6718 5.63687 10.4444 5.87074 10.2649C6.10462 10.0855 6.37417 9.95805 6.66131 9.89126C6.8136 9.85519 6.96954 9.83681 7.12605 9.83649C7.6738 9.83605 8.19933 10.0531 8.58712 10.44C8.97491 10.8268 9.19324 11.3518 9.19412 11.8996V13.8382C9.18588 14.1308 9.2638 14.4194 9.41819 14.6681C9.55739 14.8809 9.75589 15.0482 9.98915 15.1494L10.6431 15.4083L11.1975 14.0805L10.6165 13.8548Z" fill="white"/>
</svg>
