<svg width="39" height="8" viewBox="0 0 39 8" fill="none" xmlns="http://www.w3.org/2000/svg">
<g clip-path="url(#clip0_768_380)">
<path fill-rule="evenodd" clip-rule="evenodd" d="M5.01561 2.46399L3.95866 0.609375H1.75488L2.99256 2.57565L5.01561 2.46399Z" fill="#00B6F1"/>
<path fill-rule="evenodd" clip-rule="evenodd" d="M2.99505 2.57833L1.95703 4.12921L2.91935 4.12353L3.39625 3.40439L4.49389 3.40534L5.03135 2.48939L5.01621 2.46289L2.99316 2.57455L2.99505 2.57739V2.57833Z" fill="#006EB9"/>
<path fill-rule="evenodd" clip-rule="evenodd" d="M6.6204 5.28664L6.62229 5.28285L6.62135 5.28096L5.71864 3.69507L3.52148 3.6875L4.3977 5.22797L4.42892 5.28285L4.42703 5.28664H6.6204Z" fill="#00B6F1"/>
<path fill-rule="evenodd" clip-rule="evenodd" d="M3.312 5.35302L3.31295 5.35018L2.81428 4.3907L1.83777 4.37556L1.26624 3.58451L0.158203 3.57031L1.15648 5.3322H1.15743L3.312 5.35302Z" fill="#00B6F1"/>
<path fill-rule="evenodd" clip-rule="evenodd" d="M0.0263672 7.09341H2.21311L2.7449 6.27681L3.35333 7.09341H5.5344L6.62068 5.28516H4.4273L3.46877 6.79535L2.91333 6.01849L3.31169 5.35329L1.15712 5.33247L1.16658 5.3495L0.0263672 7.09341Z" fill="#006EB9"/>
<path d="M37.7393 0.582031H38.9306V6.87733H37.7393V0.582031Z" fill="#006EB9"/>
<path d="M32.917 2.80078H34.2436V4.86736C34.2436 5.18813 34.2985 5.42847 34.4064 5.5865C34.5142 5.74452 34.6779 5.824 34.8994 5.824C35.1501 5.824 35.3394 5.71613 35.468 5.50133C35.5977 5.28654 35.662 4.9705 35.662 4.55605V2.80078H36.9924V6.89703H35.7841V6.13058C35.6317 6.4031 35.4349 6.61127 35.1965 6.7532C34.9561 6.89514 34.6846 6.96705 34.3799 6.96705C33.9039 6.96705 33.5396 6.81282 33.2908 6.50624C33.0419 6.19871 32.917 5.75114 32.917 5.16258V2.80078Z" fill="#006EB9"/>
<path d="M26.8193 2.72656H28.2964V6.87675H26.8193V2.72656Z" fill="#006EB9"/>
<path d="M26.2852 2.8462L26.2076 4.02048C26.147 3.99682 26.0798 3.98074 26.0079 3.96843C25.9341 3.95708 25.8471 3.95235 25.7496 3.95235C25.3976 3.95235 24.9462 4.05643 24.7674 4.26461C24.5895 4.47372 24.4996 4.7803 24.4996 5.18529V6.87811H23.208V2.90676H24.5261V3.66469C24.6756 3.37136 24.8582 3.15373 25.074 3.01179C25.2897 2.87175 25.5452 2.80078 25.8404 2.80078C25.9152 2.80078 26.0552 2.81497 26.2568 2.84242L26.2852 2.8462Z" fill="#006EB9"/>
<path d="M22.5054 4.53894V6.89223H21.245V4.83511C21.245 4.50961 21.193 4.26548 21.0898 4.10746C20.9867 3.94849 20.8306 3.86901 20.6195 3.86901C20.4 3.86901 20.2231 3.96836 20.0896 4.16896C19.9581 4.36767 19.8919 4.63546 19.8919 4.97232V6.89223H18.6211V2.81679H19.7755V3.56243C19.9203 3.28423 20.1086 3.07133 20.3385 2.92561C20.5675 2.77895 20.8268 2.70703 21.1154 2.70703C21.5677 2.70703 21.913 2.86221 22.1496 3.17352C22.3862 3.48484 22.5054 3.93997 22.5054 4.53894Z" fill="#006EB9"/>
<path d="M17.8823 4.88149V6.8771H16.6531L16.6228 6.39736C16.4553 6.63392 16.2528 6.80802 16.0153 6.91968C15.7778 7.03039 15.493 7.08527 15.1571 7.08527C14.7379 7.08527 14.4039 6.96604 14.155 6.72854C13.9071 6.49198 13.7822 6.17405 13.7822 5.77852C13.7822 5.32149 13.9639 4.98368 14.3244 4.76321C14.6859 4.54274 15.2423 4.43203 15.9936 4.43203H16.5471V4.37715C16.5471 4.15194 16.462 3.97973 16.2888 3.85956C16.1156 3.73939 15.8639 3.67977 15.5347 3.67977C15.3719 3.67977 15.1874 3.70721 14.9811 3.76493C14.7729 3.82265 14.5506 3.90687 14.3131 4.01569L14.2894 3.08459C14.5193 2.98902 14.7691 2.91616 15.0369 2.8698C15.3047 2.82343 15.6009 2.79883 15.9226 2.79883C16.5982 2.79883 17.094 2.96726 17.4091 3.30222C17.7242 3.63814 17.8823 4.16424 17.8823 4.88149ZM16.3787 5.11805C15.9075 5.11805 15.5668 5.1682 15.3587 5.2685C15.1495 5.36975 15.0464 5.53061 15.0464 5.75392C15.0464 5.91383 15.1032 6.04441 15.2139 6.14282C15.3255 6.24312 15.4722 6.29327 15.6567 6.29327C15.9491 6.29327 16.1876 6.19676 16.373 6.00372C16.5585 5.81069 16.6522 5.55899 16.6522 5.24958V5.11805H16.3787Z" fill="#006EB9"/>
<path d="M8.70801 1.10742H11.0887C12.0813 1.10742 13.1165 1.31654 13.1165 2.50596C13.1165 3.10114 12.6226 3.7143 12.0974 3.85718C12.8913 3.99817 13.3588 4.52995 13.3588 5.33993C13.3588 6.66939 12.0529 6.905 10.9695 6.905H8.70801V1.10742ZM9.93244 1.95903V3.38879H10.5494C10.9771 3.38879 11.2997 3.32729 11.5117 3.20617C11.7237 3.08411 11.8296 2.89959 11.8296 2.64884C11.8296 2.42458 11.7293 2.25237 11.5297 2.13503C11.33 2.0177 11.0339 1.95903 10.6459 1.95903H9.93244ZM9.93244 4.4183V5.86036H10.7301C11.1455 5.86036 11.4606 5.79885 11.6745 5.673C11.8883 5.5481 11.9962 5.36453 11.9962 5.12608C11.9962 4.88952 11.8978 4.71258 11.7019 4.59524C11.5041 4.47696 11.2117 4.4183 10.8219 4.4183H9.93244Z" fill="#006EB9"/>
<path fill-rule="evenodd" clip-rule="evenodd" d="M27.5566 0.800781C27.9948 0.800781 28.3496 1.13196 28.3496 1.53979C28.3496 1.94762 27.9948 2.27785 27.5566 2.27785C27.1195 2.27785 26.7646 1.94762 26.7646 1.53979C26.7646 1.13196 27.1195 0.800781 27.5566 0.800781Z" fill="#006EB9"/>
<path fill-rule="evenodd" clip-rule="evenodd" d="M28.749 6.49677C28.9846 6.26684 29.2212 6.03785 29.4568 5.80791C29.7104 6.24602 31.1193 6.46176 31.1127 5.84576C31.1042 5.11054 28.784 5.648 28.9827 4.03751C29.0982 3.09695 30.1504 2.80078 30.685 2.80078C31.2263 2.80078 31.707 2.95691 32.0987 3.29566C31.8943 3.5379 31.689 3.74796 31.4846 3.98925C31.3833 3.80947 30.1542 3.43854 30.0274 4.01764C29.9044 4.57781 30.9414 4.44818 31.5262 4.67716C32.0097 4.86641 32.2955 5.17867 32.2359 5.81927C32.1593 6.64533 31.5007 7.13737 30.4239 7.1298C30.0785 7.12697 29.3073 7.03045 28.749 6.49677Z" fill="#006EB9"/>
</g>
<defs>
<clipPath id="clip0_768_380">
<rect width="39" height="6.78261" fill="white" transform="translate(0 0.535156)"/>
</clipPath>
</defs>
</svg>
