<svg width="25" height="26" viewBox="0 0 25 26" fill="none" xmlns="http://www.w3.org/2000/svg">
<path fill-rule="evenodd" clip-rule="evenodd" d="M24.9982 25.163V0.509766H0V25.5098H24.9982V25.163Z" fill="white"/>
<path fill-rule="evenodd" clip-rule="evenodd" d="M24.0726 24.5817V1.4375H0.926758V24.5817H24.0726Z" fill="#1E447F"/>
<path fill-rule="evenodd" clip-rule="evenodd" d="M15.9629 10.7763L12.8071 13.9356V16.8449L18.8778 10.7724L12.8071 4.70053V7.61835L15.9629 10.7763ZM9.01392 10.7763L12.1763 7.61835V4.69727L6.10049 10.7724L12.1763 16.8482V13.9366L9.01392 10.7763ZM7.54123 17.9257H7.63937L7.37705 19.0562H7.27793C7.26456 18.7492 7.1863 18.518 7.04887 18.3674C6.91061 18.2164 6.72801 18.1435 6.50417 18.1435C6.26483 18.1435 6.0211 18.2425 5.78372 18.4502C5.54438 18.6563 5.34075 18.9753 5.17462 19.3981C5.04142 19.7419 4.9736 20.0805 4.9736 20.4174C4.9736 20.7164 5.04664 20.9466 5.19647 21.1065C5.34385 21.2658 5.54438 21.3418 5.79904 21.3418C6.01099 21.3418 6.20174 21.2976 6.37113 21.2055C6.54427 21.1166 6.71481 20.9682 6.89121 20.7648H7.01707C6.79942 21.0879 6.58047 21.3157 6.36151 21.4481C6.13881 21.5793 5.86833 21.6442 5.54797 21.6442C5.12115 21.6442 4.77747 21.5149 4.51531 21.254C4.25315 20.9968 4.12012 20.6583 4.12012 20.2395C4.12012 19.8482 4.22642 19.4744 4.43265 19.1176C4.6402 18.7622 4.94246 18.4766 5.33374 18.2544C5.72079 18.0369 6.11288 17.9254 6.49911 17.9254C6.64372 17.9254 6.82632 17.9572 7.04397 18.0203C7.15533 18.0534 7.23472 18.068 7.27825 18.068C7.36695 18.0684 7.45221 18.0206 7.54123 17.9257ZM9.59693 19.0435L9.52878 20.2035H8.60535L9.59693 19.0435ZM9.4321 21.2792C9.39069 21.3524 9.34748 21.4049 9.29972 21.4285C9.27298 21.4399 9.18836 21.4533 9.0356 21.4666L9.00381 21.5648H10.5445L10.5714 21.4666C10.46 21.4583 10.3805 21.4265 10.3338 21.3737C10.2856 21.317 10.2587 21.2314 10.2587 21.1117C10.2587 21.083 10.2639 20.9901 10.269 20.8395L10.3854 17.9259H10.269L7.74877 20.9342C7.56291 21.1549 7.42564 21.2976 7.32439 21.3654C7.25119 21.4169 7.17147 21.4502 7.07495 21.4666L7.04887 21.5648H8.10794V21.4666C8.00473 21.4616 7.93349 21.4399 7.88523 21.4049C7.84398 21.3685 7.8223 21.3307 7.8223 21.2889C7.8223 21.2492 7.82719 21.2097 7.84692 21.1676C7.87072 21.1148 7.90675 21.0568 7.95517 20.9919L8.20396 20.6896L8.42667 20.4174H9.52894L9.50742 20.8701C9.49519 21.0631 9.47221 21.1994 9.4321 21.2792ZM13.1142 18.1962C13.2569 18.1898 13.3735 18.2332 13.4581 18.3178C13.5427 18.4024 13.5857 18.5139 13.5857 18.6512C13.5857 18.7976 13.5459 18.9483 13.4612 19.1126C13.3783 19.2769 13.267 19.3953 13.1328 19.4664C12.9915 19.5378 12.8067 19.5759 12.5682 19.5779L12.9698 18.1981L13.1142 18.1962ZM12.0752 18.1763C12.128 18.2164 12.1497 18.2674 12.1497 18.3273C12.1497 18.4024 12.1199 18.5501 12.0537 18.7722L11.4244 20.9601C11.3716 21.1345 11.3231 21.2521 11.2868 21.3059C11.2504 21.3604 11.1982 21.4025 11.1373 21.4265C11.0774 21.4533 10.9751 21.4666 10.8306 21.4666L10.7967 21.5648H12.2764C12.8276 21.5648 13.2088 21.5214 13.4214 21.4419C13.6211 21.3642 13.7941 21.2305 13.9198 21.0569C14.0455 20.8809 14.1086 20.7032 14.1086 20.5237C14.1086 20.3298 14.0455 20.1603 13.9198 20.0176C13.7885 19.8715 13.5644 19.7536 13.2303 19.6607C13.5481 19.5893 13.7815 19.5101 13.9343 19.4255C14.089 19.3407 14.2053 19.2306 14.2778 19.1013C14.3577 18.9686 14.396 18.8424 14.396 18.7145C14.396 18.5635 14.3479 18.4244 14.253 18.3015C14.1568 18.183 14.0178 18.1003 13.8401 18.0592C13.707 18.0274 13.4843 18.0074 13.1692 18.0074H11.7633L11.7368 18.1055C11.9109 18.1114 12.0217 18.135 12.0752 18.1763L12.9761 19.8299C13.0678 19.865 13.1424 19.9281 13.2041 20.0207C13.2619 20.1136 13.2888 20.2181 13.2888 20.3378C13.2888 20.5853 13.2137 20.8176 13.0612 21.0351C12.9072 21.2519 12.6365 21.3634 12.2497 21.3634C12.2032 21.3634 12.1383 21.3602 12.0537 21.3555L12.5055 19.7732C12.7275 19.7732 12.8803 19.7949 12.9761 19.8299L12.0752 18.1763ZM16.758 19.0435L16.6919 20.2035H15.7722L16.758 19.0435ZM16.5934 21.2792C16.5503 21.3524 16.5089 21.4049 16.4607 21.4285C16.4377 21.4399 16.3498 21.4533 16.1954 21.4666L16.1703 21.5648H17.7061L17.7341 21.4666C17.6218 21.4583 17.5414 21.4265 17.4937 21.3737C17.4452 21.317 17.4255 21.2314 17.4255 21.1117C17.4255 21.083 17.4255 20.9901 17.4306 20.8395L17.5465 17.9259H17.4306L14.9092 20.9343C14.7296 21.1551 14.5864 21.2977 14.4902 21.3656C14.4161 21.4171 14.3313 21.4503 14.2364 21.4668L14.2097 21.565H15.2738V21.4668C15.1675 21.4618 15.0948 21.4401 15.0519 21.405C15.0051 21.3687 14.9834 21.3308 14.9834 21.2891C14.9834 21.2493 14.9921 21.2099 15.0102 21.1678C15.0318 21.115 15.068 21.0569 15.1165 20.9921L15.3706 20.6898L15.5925 20.4175H16.6917L16.6669 20.8703C16.6568 21.0631 16.6351 21.1994 16.5934 21.2792ZM21.2084 20.5656L20.8152 21.5648H17.9748L18.0015 21.4666C18.1738 21.4666 18.2964 21.4349 18.3731 21.3685C18.4526 21.3026 18.5257 21.1561 18.5909 20.9255L19.2513 18.6427C19.2895 18.5167 19.3048 18.4189 19.3048 18.3475C19.3048 18.2761 19.2844 18.2195 19.2246 18.1797C19.1781 18.138 19.072 18.1112 18.9176 18.1049L18.951 18.0067H20.6555L20.6259 18.1049C20.4596 18.1083 20.3371 18.1447 20.2587 18.2164C20.1759 18.2858 20.1046 18.4292 20.0416 18.6427L19.4372 20.7328C19.3627 20.9968 19.3213 21.1592 19.3213 21.2179C19.3213 21.2519 19.343 21.2857 19.3791 21.3157C19.4225 21.3437 19.4851 21.3634 19.5719 21.3634C19.8604 21.3634 20.1408 21.294 20.4115 21.1613C20.6824 21.03 20.9095 20.8308 21.0954 20.5656H21.2084Z" fill="white"/>
</svg>
