<svg width="39" height="29" viewBox="0 0 39 29" fill="none" xmlns="http://www.w3.org/2000/svg">
<path d="M37.2273 0H19.5H1.77275C0.793711 0 0 0.793711 0 1.77275V27.0975C0 28.0765 0.793711 28.8702 1.77275 28.8702H19.5H37.2273C38.2063 28.8702 39 28.0765 39 27.0975V1.77275C39 0.793711 38.2063 0 37.2273 0Z" fill="#DEDEE0"/>
<path d="M13.3594 14.4237C13.3626 16.2486 14.4994 17.8041 16.1087 18.4223V10.4219C14.4994 11.0441 13.3626 12.5996 13.3594 14.4237Z" fill="#3D6DEB"/>
<path d="M26.7973 8.77568C25.2804 7.37915 23.2067 6.57812 21.1011 6.57812H19.5005H17.6209C13.1087 6.57812 9.70605 9.98362 9.70605 14.4996C9.70605 18.7979 13.2431 22.2949 17.5907 22.2949H19.5005H21.0988L21.1375 22.295C21.1377 22.295 21.1378 22.295 21.1379 22.295C23.1955 22.295 25.2638 21.4629 26.8122 20.0123C28.4132 18.5123 29.2949 16.5546 29.2949 14.4998C29.2949 12.2913 28.4079 10.2585 26.7973 8.77568ZM19.5005 20.431C18.9133 20.613 18.2899 20.7114 17.6439 20.7114C14.1769 20.7114 11.3562 17.8906 11.3562 14.4233C11.3562 10.956 14.1769 8.13523 17.6439 8.13523C18.2899 8.13523 18.9133 8.23357 19.5005 8.41554C22.0624 9.20971 23.9287 11.6026 23.9287 14.4233C23.9287 17.244 22.0624 19.6368 19.5005 20.431Z" fill="#3D6DEB"/>
<path d="M19.5007 10.5633C19.3948 10.5121 19.2871 10.4643 19.1768 10.4219V18.4223C19.2873 18.3799 19.3949 18.3321 19.5007 18.2811C20.9362 17.5884 21.9257 16.1234 21.9288 14.4239C21.9257 12.725 20.9362 11.2571 19.5007 10.5633Z" fill="#3D6DEB"/>
<path d="M19.4997 8.41508C18.9126 8.2331 18.2892 8.13477 17.6431 8.13477C14.1761 8.13477 11.3555 10.9556 11.3555 14.4228C11.3555 17.89 14.1761 20.7109 17.6431 20.7109C18.2892 20.7109 18.9126 20.6126 19.4997 20.4306C22.0617 19.6364 23.9279 17.2437 23.9279 14.4228C23.9279 11.602 22.0617 9.20932 19.4997 8.41508ZM16.1084 18.4215C14.4991 17.8034 13.3623 16.2478 13.359 14.4231C13.3622 12.5989 14.4991 11.0434 16.1084 10.4211V18.4215ZM19.4997 18.2803C19.3938 18.3313 19.2861 18.379 19.1757 18.4215V10.421C19.2863 10.4634 19.3939 10.5114 19.4997 10.5624C20.9351 11.2561 21.9247 12.7241 21.9278 14.423C21.9247 16.1226 20.9351 17.5875 19.4997 18.2803Z" fill="#DEDEE0"/>
<path d="M17.5902 22.2934C13.2426 22.2934 9.70559 18.7965 9.70559 14.4982C9.70559 9.98225 13.1082 6.57668 17.6205 6.57668H19.5V0H1.77275C0.793711 0 0 0.793711 0 1.77275V27.0975C0 28.0765 0.793711 28.8702 1.77275 28.8702H19.5V22.2934L17.5902 22.2934Z" fill="#C3C3C7"/>
</svg>
