<svg width="39" height="24" viewBox="0 0 39 24" fill="none" xmlns="http://www.w3.org/2000/svg">
<path fill-rule="evenodd" clip-rule="evenodd" d="M38.4946 0.767578H4.68743C4.68743 0.767578 2.1155 0.984597 1.79557 3.65944C1.47564 6.33428 0 23.6075 0 23.6075L34.1137 23.6949C34.1137 23.6949 36.4139 23.6514 36.6745 21.1342C36.935 18.6169 38.4946 0.767578 38.4946 0.767578Z" fill="white"/>
<path fill-rule="evenodd" clip-rule="evenodd" d="M37.5864 1.68997L36.3713 14.3197C36.3713 14.3197 36.1108 16.2729 33.4631 16.2294C30.8158 16.1855 1.51953 16.1428 1.51953 16.1428L2.56114 3.9902C2.56114 3.9902 2.82164 1.64648 5.51242 1.64648C8.20319 1.64648 37.5864 1.68997 37.5864 1.68997Z" fill="#06376C"/>
<path fill-rule="evenodd" clip-rule="evenodd" d="M8.86189 8.63953L12.3966 8.618L11.7891 13.9526C11.7891 13.9526 5.54374 15.709 4.04743 12.0653C2.55112 8.42251 5.5657 4.32413 9.7291 4.56268C9.7291 4.56268 12.0061 4.75774 12.3747 4.88777L12.3531 7.14322C12.3531 7.14322 10.9218 6.62263 9.83761 6.68765C8.75338 6.7531 7.12703 7.18671 6.58491 9.5287C6.04279 11.8707 8.25432 12.4778 9.44706 12.0873L9.55557 10.6995H8.55832L8.86189 8.63953Z" fill="white"/>
<path fill-rule="evenodd" clip-rule="evenodd" d="M15.9527 6.75276C15.9527 6.75276 17.2755 6.66578 18.0127 6.99087C18.7498 7.3164 19.5525 8.05358 19.726 9.22479C19.8995 10.3956 19.4224 12.4775 18.7498 13.0846C18.0777 13.6913 17.2539 14.4944 15.2586 14.3424C13.2636 14.1904 12.1579 12.521 12.483 10.3956C12.8081 8.2706 14.0658 7.05632 15.9527 6.75276ZM16.6283 8.77999C16.8552 8.87687 17.0585 8.98624 17.167 9.41942C17.2755 9.85346 17.297 11.0247 17.0369 11.5018C16.7768 11.9789 16.3213 12.586 15.4756 12.2824C14.6299 11.9789 15.085 9.80953 15.237 9.52836C15.3886 9.24632 15.5708 8.45489 16.6283 8.77999Z" fill="white"/>
<path fill-rule="evenodd" clip-rule="evenodd" d="M23.4343 6.7956C23.4343 6.7956 24.757 6.70906 25.4942 7.03415C26.2314 7.35968 27.034 8.09643 27.2071 9.26764C27.3806 10.4389 26.9035 12.5208 26.2314 13.1279C25.5592 13.735 24.7351 14.5372 22.7401 14.3857C20.7452 14.2337 19.639 12.5638 19.9645 10.4389C20.2896 8.31387 21.5474 7.09917 23.4343 6.7956ZM24.1094 8.82284C24.3368 8.92015 24.54 9.02866 24.6485 9.46313C24.757 9.89673 24.7786 11.0675 24.5185 11.5446C24.258 12.0217 23.8028 12.6288 22.9572 12.3253C22.111 12.0217 22.5666 9.85324 22.7186 9.57164C22.8702 9.2896 23.0523 8.49774 24.1094 8.82284Z" fill="white"/>
<path fill-rule="evenodd" clip-rule="evenodd" d="M32.2813 8.72568L31.9562 11.3282C31.9562 11.3282 31.5872 12.499 30.72 12.3689C29.8523 12.2389 29.7008 10.9161 30.0909 10.0704C30.4814 9.22474 31.002 8.4656 32.2813 8.72568ZM32.6064 6.83925L32.8019 4.7793L35.2955 4.80083L34.0162 14.1473H31.6307L31.6526 13.7137C31.6526 13.7137 31.0451 14.3639 29.6573 14.3858C28.2695 14.4074 27.1852 13.2361 27.3153 11.2632C27.4453 9.28976 28.5295 7.51141 30.6765 6.90427C30.6765 6.90427 31.3706 6.7527 31.8257 6.79576C32.2813 6.83925 32.6064 6.83925 32.6064 6.83925Z" fill="white"/>
<path fill-rule="evenodd" clip-rule="evenodd" d="M0.998047 22.6529H34.4177C34.4177 22.6529 35.6763 22.2188 35.7628 21.0468C35.8498 19.8751 36.1969 16.9238 36.1969 16.9238L3.29827 16.9673C3.29827 16.9673 1.47557 16.8803 1.30205 18.877C1.12852 20.8732 0.998047 22.6529 0.998047 22.6529Z" fill="#F5AE00"/>
<path fill-rule="evenodd" clip-rule="evenodd" d="M32.5812 19.6684L32.4378 20.8151C32.4378 20.8151 32.2755 21.3309 31.8935 21.2737C31.5112 21.2155 31.4444 20.6334 31.6162 20.2609C31.7885 19.888 32.0175 19.5539 32.5812 19.6684ZM32.7246 18.8374L32.8107 17.9297L33.9091 17.9392L33.3455 22.0569H32.2948L32.3043 21.8657C32.3043 21.8657 32.0369 22.1521 31.4255 22.162C30.814 22.1715 30.3361 21.6556 30.3933 20.7862C30.451 19.9169 30.9286 19.1336 31.8741 18.8658C31.8741 18.8658 32.1799 18.7986 32.3805 18.8176C32.5812 18.8374 32.7246 18.8374 32.7246 18.8374Z" fill="#06376C"/>
<path fill-rule="evenodd" clip-rule="evenodd" d="M28.4432 18.8955L28.1396 21.9316L29.2997 21.9424C29.2997 21.9424 29.0736 19.584 30.4274 19.7739L30.5902 18.8301C30.5902 18.8301 29.8203 18.8848 29.5059 19.2852L29.5925 18.9063L28.4432 18.8955Z" fill="#06376C"/>
<path fill-rule="evenodd" clip-rule="evenodd" d="M26.8926 20.6424C26.8926 20.6424 27.0338 21.2603 26.5455 21.3473C26.0576 21.4338 26.0469 21.1953 26.1119 21.0437C26.1769 20.8917 26.4805 20.7289 26.8926 20.6424ZM25.8626 18.9829L25.6456 19.8505C25.6456 19.8505 26.4913 19.5254 26.8926 19.6232C27.2939 19.7209 26.9361 20.0245 26.6105 20.1003C26.2854 20.1761 25.494 20.4146 25.3097 20.6751C25.1254 20.9352 24.9954 21.6616 25.4613 21.8786C25.9276 22.0952 26.741 21.8567 26.741 21.8567L26.7625 21.9652L27.836 21.9436L28.1503 19.4281C28.1503 19.4281 28.1503 18.9183 27.5432 18.864C26.9361 18.8098 25.8626 18.9829 25.8626 18.9829Z" fill="#06376C"/>
<path fill-rule="evenodd" clip-rule="evenodd" d="M25.3538 18.0283L25.2775 18.9502C25.2775 18.9502 24.4211 18.6462 23.6727 18.9394C22.9248 19.2322 22.9356 20.5111 23.2176 20.8258C23.4996 21.1401 24.3453 21.2052 24.8767 21.0209L24.8547 21.932C24.8547 21.932 22.6647 22.3979 22.0899 21.3029C21.5155 20.2079 21.8406 18.7659 22.8055 18.3206C23.7705 17.8767 24.5619 17.9309 25.3538 18.0283Z" fill="#06376C"/>
</svg>
