<svg width="25" height="25" viewBox="0 0 25 25" fill="none" xmlns="http://www.w3.org/2000/svg">
<path fill-rule="evenodd" clip-rule="evenodd" d="M12.5003 0C19.4035 0 25 5.59596 25 12.4997C25 19.4029 19.4035 24.9994 12.5003 24.9994C5.59655 24.9994 0 19.4029 0 12.4997C0 5.59596 5.59655 0 12.5003 0Z" fill="#D52B1E"/>
<path fill-rule="evenodd" clip-rule="evenodd" d="M14.9407 12.5803C15.0633 12.2768 16.3893 10.814 16.5025 10.5181L14.9831 10.5146C14.8099 10.5511 13.9482 11.8872 13.8239 12.074C13.7066 12.2491 13.6223 12.4789 13.3659 12.4937L13.3647 8.77539L11.9014 8.77775L11.9114 15.5247L13.3642 15.5253L13.3659 13.4626C14.9425 13.4455 14.2924 13.4885 15.1464 15.5271L16.6987 15.5277C16.6504 15.3114 16.4542 14.9448 16.3663 14.6931C16.2644 14.4008 16.1778 14.0885 16.0917 13.7938C15.876 13.0594 15.7882 12.6015 14.9413 12.5803H14.9407Z" fill="#FFFEFE"/>
<path fill-rule="evenodd" clip-rule="evenodd" d="M18.1765 12.3975C18.2985 11.8648 18.6557 11.4675 19.2916 11.4528C19.9452 11.4375 20.33 11.807 20.4102 12.407L18.1765 12.3975ZM20.9925 14.2735C20.3725 14.4302 19.977 14.663 19.2173 14.4367C18.6798 14.277 18.3056 13.9623 18.216 13.3841L21.9914 13.3829C22.0344 10.7084 19.9228 10.0159 18.259 10.5817C17.0255 11.0013 16.4414 12.1488 16.6206 13.4148C16.9223 15.55 19.4006 16.0156 20.894 15.3767L20.9925 14.2735Z" fill="#FFFEFE"/>
<path fill-rule="evenodd" clip-rule="evenodd" d="M0.227539 10.1139H1.50232L1.51706 15.5271H3.09005L3.1042 10.1139H4.98661L5.20998 8.77248L0.565241 8.76953C0.42851 9.20742 0.315943 9.65652 0.227539 10.1139Z" fill="#FFFEFE"/>
<path fill-rule="evenodd" clip-rule="evenodd" d="M11.6248 10.7202C10.7991 10.5151 9.90566 10.1379 8.76054 10.732C8.08631 11.082 7.53585 11.7987 7.48694 12.8413C7.34019 15.956 10.8174 15.85 11.2282 15.4127C11.3596 15.1215 11.362 14.5805 11.3861 14.2151C10.805 14.3671 10.3654 14.5522 9.74889 14.2599C8.73932 13.7825 8.85071 12.1853 9.70646 11.7763C10.3276 11.4787 10.6954 11.6897 11.2182 11.8582L11.6248 10.7202Z" fill="#FFFEFE"/>
<path fill-rule="evenodd" clip-rule="evenodd" d="M24.6301 15.53L24.6484 15.4422C24.4568 14.9819 24.1427 14.7809 23.9058 13.8662C23.7808 13.3853 23.7237 12.2384 23.802 11.7316C24.6808 11.7316 24.5953 11.8023 24.6584 11.454L24.791 10.6153L23.802 10.6029L23.795 8.81836L22.3098 9.39888C22.3068 10.5593 22.2933 11.7345 22.3098 12.8932C22.3263 14.0483 22.6823 14.7662 23.1555 15.5294L24.6301 15.53Z" fill="#FFFEFE"/>
<path fill-rule="evenodd" clip-rule="evenodd" d="M5.54927 15.5262L7.03268 15.512L7.01736 10.5137L5.54102 10.5166L5.54927 15.5262Z" fill="#FFFEFE"/>
<path fill-rule="evenodd" clip-rule="evenodd" d="M5.54102 9.86257L5.72902 9.87554L7.03917 9.87318L7.03327 8.97028L7.03209 8.77344L5.5416 8.77521L5.54102 9.86257Z" fill="#FFFEFE"/>
</svg>
