<svg width="39" height="22" viewBox="0 0 39 22" fill="none" xmlns="http://www.w3.org/2000/svg">
<g clip-path="url(#clip0_770_420)">
<path d="M0 10.2718H10.9696L12.852 0.632812L0 10.2718Z" fill="#020202"/>
<path d="M14.4751 0.632812L12.5928 10.2718H23.1081L14.4751 0.632812Z" fill="#020202"/>
<path d="M10.71 11.7031H0L8.82764 21.4694L10.71 11.7031Z" fill="#020202"/>
<path d="M10.4502 21.729L12.2677 11.7031H15.9675C15.9675 11.7031 19.3118 12.1621 18.9533 14.9785C18.4989 18.5485 15.4482 18.6134 15.4482 18.6134H13.5658L12.8518 21.729H10.4502Z" fill="#020202"/>
<path d="M14.4095 14.1337L14.085 16.1459C14.085 16.1459 16.227 16.7301 16.4217 15.3021C16.6164 13.8741 14.4095 14.1337 14.4095 14.1337Z" fill="white"/>
<path d="M19.9273 11.7031H22.3938L21.0307 19.2625H23.6271L23.2377 21.729H18.0449L19.9273 11.7031Z" fill="#020202"/>
<path d="M25.1845 11.7031H27.6511L26.4827 18.159C26.4827 18.159 26.288 19.5221 27.5862 19.5221C28.8844 19.5221 28.9493 18.0292 28.9493 18.0292L30.1825 11.7031H32.5842L31.4807 18.0292C31.4807 18.0292 30.9746 21.8376 27.3915 21.729C23.1074 21.5992 24.0162 17.8994 24.0162 17.8994L25.1845 11.7031Z" fill="#020202"/>
<path d="M36.5435 14.9129H38.9451C38.9451 14.9129 39.5942 11.8972 36.4136 11.7025C33.2331 11.5077 32.5394 13.9368 32.5191 14.7182C32.4542 17.1848 35.8295 17.3146 35.8295 18.4829C35.8295 19.6513 35.1155 19.5864 35.1155 19.5864C33.8173 19.5215 34.2067 18.2882 34.2067 18.2882H31.7402C31.7402 18.2882 31.0916 21.6417 34.726 21.7284C37.4522 21.7933 38.3006 19.9084 38.3609 19.0022C38.5556 16.0813 35.1378 15.7831 35.0506 14.6533C34.9856 13.8095 35.5049 13.7446 35.9593 13.7446C36.5435 13.7446 36.5435 14.9129 36.5435 14.9129Z" fill="#020202"/>
</g>
<defs>
<clipPath id="clip0_770_420">
<rect width="39" height="21.0981" fill="white" transform="translate(0 0.632812)"/>
</clipPath>
</defs>
</svg>
