<svg width="21" height="26" viewBox="0 0 21 26" fill="none" xmlns="http://www.w3.org/2000/svg">
<g clip-path="url(#clip0_775_452)">
<path fill-rule="evenodd" clip-rule="evenodd" d="M0 25.1611H20.6747V20.3594H0V25.1611Z" fill="#DB9600"/>
<path d="M20.6747 20.4472H0V0.160156H20.6747V20.4472Z" fill="#54923C"/>
<path d="M18.3471 18.5621H13.7383L12.1446 12.5746H13.2851C13.5123 12.5961 14.3868 12.2513 14.3851 11.3903C14.3821 10.6093 13.6673 10.6258 13.4156 10.6153H11.9936L8.9138 18.5621H4.3483L1.26855 10.1621H5.0373L6.52355 14.6203L8.28955 7.66406H15.0408C16.8658 7.66406 18.3471 9.22131 18.3471 11.1421C18.3471 12.4461 17.6646 13.5828 16.6556 14.1778L18.3471 18.5616V18.5621ZM3.9868 23.8588V21.4238C4.19938 21.3855 4.41506 21.3671 4.63105 21.3688C4.95839 21.3688 5.19639 21.4299 5.34505 21.5521C5.49372 21.6742 5.56822 21.839 5.56855 22.0463C5.57123 22.185 5.52721 22.3206 5.44355 22.4313C5.35517 22.5453 5.23397 22.6294 5.0963 22.6723C5.27447 22.742 5.3953 22.9092 5.4588 23.1741C5.5588 23.5781 5.62472 23.8063 5.65655 23.8588H5.3048C5.27147 23.8013 5.21655 23.606 5.14005 23.2728C5.10105 23.0996 5.04272 22.977 4.96505 22.9048C4.88739 22.8326 4.77814 22.7967 4.6373 22.7971H4.3273V23.8588H3.9868ZM4.3273 21.6588V22.5411H4.6678C4.83864 22.5411 4.97472 22.4994 5.07605 22.4161C5.12552 22.3761 5.16499 22.3252 5.19133 22.2674C5.21768 22.2095 5.23016 22.1463 5.2278 22.0828C5.2278 21.9353 5.17905 21.8223 5.0808 21.7448C4.98255 21.6673 4.84105 21.6288 4.6558 21.6288C4.54519 21.6256 4.43459 21.6355 4.3263 21.6583L4.3273 21.6588ZM7.49805 23.0428H6.2128C6.2178 23.2343 6.27697 23.381 6.39031 23.4828C6.50364 23.5846 6.65072 23.6355 6.83155 23.6353C7.00798 23.639 7.18339 23.6079 7.3478 23.5438L7.40655 23.7818C7.23172 23.8601 7.02547 23.8992 6.78781 23.8991C6.51181 23.8991 6.29206 23.8173 6.12855 23.6538C5.96505 23.4903 5.88331 23.2731 5.88331 23.0021C5.88331 22.7311 5.9618 22.504 6.1188 22.3208C6.2758 22.1376 6.48655 22.046 6.75105 22.0458C6.99539 22.0458 7.18272 22.1271 7.31306 22.2898C7.44339 22.4525 7.50872 22.6519 7.50906 22.8881C7.51023 22.9395 7.50655 22.991 7.49805 23.0418V23.0428ZM6.21655 22.7976H7.17956C7.17956 22.6449 7.14022 22.5218 7.06156 22.4283C6.98306 22.3348 6.87055 22.2883 6.72555 22.2883C6.66185 22.2864 6.59846 22.2979 6.53947 22.322C6.48047 22.3461 6.42719 22.3823 6.38305 22.4283C6.29272 22.5215 6.23722 22.6446 6.21655 22.7976ZM8.28905 23.8593H7.9483V22.3466H7.7003V22.0866H7.9503V22.0061C7.9503 21.7532 8.00814 21.5575 8.1238 21.4188C8.23947 21.2801 8.40014 21.211 8.6058 21.2113C8.70226 21.21 8.79804 21.2275 8.8878 21.2628L8.84755 21.5263C8.78027 21.4983 8.70791 21.4846 8.63506 21.4861C8.40305 21.4861 8.28714 21.6557 8.2873 21.9951V22.0866H8.72305V22.3466H8.28905V23.8588V23.8593ZM10.4601 23.0428H9.1753C9.1803 23.2343 9.23955 23.381 9.35305 23.4828C9.46655 23.5846 9.61347 23.6355 9.7938 23.6353C9.97022 23.639 10.1456 23.6079 10.3101 23.5438L10.3686 23.7818C10.1941 23.8601 9.9878 23.8992 9.7498 23.8991C9.4738 23.8991 9.25414 23.8173 9.0908 23.6538C8.92747 23.4903 8.84564 23.2731 8.8453 23.0021C8.8453 22.7311 8.92389 22.504 9.08105 22.3208C9.23822 22.1376 9.44889 22.046 9.71305 22.0458C9.95722 22.0458 10.1446 22.1271 10.2753 22.2898C10.406 22.4525 10.4712 22.6519 10.4711 22.8881C10.4724 22.9395 10.4687 22.991 10.4601 23.0418V23.0428ZM9.17855 22.7976H10.1416C10.1416 22.6449 10.1023 22.5218 10.0238 22.4283C9.9453 22.3348 9.83322 22.2881 9.68755 22.2883C9.62389 22.2864 9.56053 22.2979 9.50157 22.322C9.44262 22.3461 9.38938 22.3823 9.3453 22.4283C9.2548 22.5215 9.19922 22.6446 9.17855 22.7976ZM11.2216 23.8593H10.8813V22.0866H11.2216V23.8588V23.8593ZM11.2693 21.5488C11.2702 21.5777 11.265 21.6065 11.2542 21.6334C11.2435 21.6602 11.2272 21.6845 11.2066 21.7048C11.186 21.7251 11.1614 21.7409 11.1343 21.7512C11.1073 21.7615 11.0785 21.7662 11.0496 21.7648C11.0207 21.7658 10.9919 21.7608 10.9651 21.7501C10.9383 21.7394 10.914 21.7232 10.8938 21.7026C10.874 21.6823 10.8585 21.6582 10.8481 21.6318C10.8378 21.6054 10.8328 21.5772 10.8336 21.5488C10.8331 21.521 10.8384 21.4933 10.8489 21.4675C10.8595 21.4417 10.8752 21.4184 10.8951 21.3988C10.9159 21.3784 10.9406 21.3624 10.9679 21.3519C10.9951 21.3414 11.0242 21.3366 11.0533 21.3378C11.0819 21.3369 11.1105 21.3418 11.1371 21.3523C11.1638 21.3628 11.188 21.3786 11.2083 21.3988C11.2281 21.4184 11.2438 21.4417 11.2542 21.4675C11.2647 21.4933 11.2699 21.521 11.2693 21.5488ZM13.0231 23.5371L13.0853 23.7933C12.9283 23.8615 12.7588 23.8964 12.5876 23.8958L12.5003 24.0383C12.5703 24.0457 12.6358 24.0761 12.6866 24.1248C12.709 24.1462 12.7268 24.172 12.7388 24.2006C12.7509 24.2291 12.757 24.2598 12.7568 24.2908C12.759 24.3336 12.7506 24.3762 12.7324 24.4149C12.7142 24.4536 12.6867 24.4873 12.6523 24.5128C12.5828 24.5648 12.487 24.5909 12.3648 24.5911C12.2761 24.5934 12.1885 24.5705 12.1123 24.5251L12.1671 24.3641C12.2265 24.4005 12.295 24.4196 12.3648 24.4191C12.4723 24.4191 12.5261 24.3811 12.5261 24.3053C12.5261 24.222 12.4296 24.172 12.2368 24.1553L12.3898 23.8853C12.1528 23.8536 11.9672 23.756 11.8331 23.5923C11.6989 23.4286 11.6318 23.2286 11.6318 22.9923C11.6318 22.7151 11.7227 22.4883 11.9046 22.3118C12.0864 22.1353 12.325 22.0472 12.6203 22.0476C12.7808 22.0443 12.94 22.0781 13.0853 22.1463L13.0123 22.4063C12.8907 22.3457 12.7562 22.3156 12.6203 22.3186C12.4263 22.3186 12.2711 22.3797 12.1548 22.5021C12.0385 22.6244 11.9801 22.7816 11.9798 22.9738C11.9798 23.169 12.0391 23.3265 12.1576 23.4463C12.2761 23.5661 12.428 23.626 12.6133 23.6258C12.7547 23.6261 12.8945 23.5961 13.0233 23.5378L13.0231 23.5371ZM14.7661 22.7871V23.4353C14.7636 23.5776 14.7733 23.7198 14.7953 23.8603H14.4841L14.4438 23.6331C14.3105 23.8114 14.1237 23.9006 13.8836 23.9006C13.7152 23.9006 13.5804 23.8506 13.4791 23.7506C13.4302 23.7044 13.3914 23.6487 13.3653 23.5868C13.3391 23.5249 13.3261 23.4582 13.3271 23.3911C13.3271 23.1764 13.4204 23.0122 13.6071 22.8986C13.7937 22.7849 14.0665 22.7278 14.4253 22.7273V22.6943C14.4253 22.5693 14.3911 22.4693 14.3221 22.4003C14.2531 22.3313 14.1506 22.2953 14.0151 22.2953C13.8442 22.2925 13.6763 22.3396 13.5318 22.4308L13.4551 22.2073C13.6257 22.1001 13.8295 22.0465 14.0663 22.0463C14.2971 22.0463 14.4716 22.1097 14.5896 22.2366C14.7076 22.3634 14.7659 22.5467 14.7646 22.7866L14.7661 22.7871ZM14.4328 23.2546V22.9616C14.1473 22.9616 13.949 22.9957 13.8378 23.0641C13.7266 23.1324 13.6711 23.2264 13.6713 23.3461C13.6713 23.4401 13.6993 23.5133 13.7548 23.5666C13.7845 23.5937 13.8192 23.6147 13.857 23.6284C13.8948 23.6421 13.9349 23.6482 13.9751 23.6463C14.0948 23.6494 14.2112 23.6064 14.3001 23.5261C14.3877 23.4464 14.4316 23.3559 14.4318 23.2546H14.4328ZM13.8103 21.8011H13.6383C13.6383 21.6844 13.6595 21.5927 13.7018 21.5261C13.7198 21.4949 13.7458 21.4692 13.7772 21.4516C13.8086 21.434 13.8441 21.4252 13.8801 21.4261C13.9347 21.4261 14.0141 21.4541 14.1181 21.5103C14.1913 21.5518 14.2473 21.5723 14.2863 21.5723C14.3438 21.5723 14.3756 21.5201 14.3816 21.4151H14.5503C14.5503 21.6567 14.467 21.7776 14.3003 21.7776C14.2405 21.7776 14.1636 21.7507 14.0696 21.6971C13.9963 21.6556 13.9416 21.6348 13.9048 21.6348C13.8498 21.6348 13.8183 21.6896 13.8096 21.7996L13.8103 21.8011ZM16.9703 22.9543C16.9743 23.1284 16.9333 23.3007 16.8513 23.4543C16.7749 23.5944 16.659 23.709 16.5181 23.7838C16.3759 23.8607 16.2167 23.9004 16.0551 23.8993C15.7962 23.8993 15.5826 23.8146 15.4141 23.6453C15.2456 23.476 15.1614 23.2567 15.1616 22.9876C15.1616 22.7006 15.2486 22.4719 15.4228 22.3016C15.597 22.1312 15.8162 22.0462 16.0806 22.0466C16.3441 22.0466 16.5582 22.131 16.7231 22.2998C16.8879 22.4686 16.9703 22.6869 16.9703 22.9546V22.9543ZM15.5096 22.9763C15.5096 23.1703 15.5614 23.3304 15.6651 23.4566C15.7109 23.5163 15.77 23.5645 15.8377 23.5975C15.9054 23.6304 15.9798 23.6471 16.0551 23.6463C16.1318 23.6473 16.2078 23.6306 16.2771 23.5976C16.3465 23.5646 16.4073 23.5162 16.4551 23.4561C16.5617 23.3291 16.615 23.1655 16.6148 22.9653C16.6148 22.781 16.5658 22.6237 16.4678 22.4936C16.3698 22.3634 16.2358 22.2985 16.0658 22.2988C15.8936 22.2988 15.7579 22.3631 15.6586 22.4918C15.5592 22.6205 15.5092 22.782 15.5086 22.9763H15.5096Z" fill="white"/>
</g>
<defs>
<clipPath id="clip0_775_452">
<rect width="20.6747" height="25" fill="white" transform="translate(0 0.160156)"/>
</clipPath>
</defs>
</svg>
