<svg width="25" height="26" viewBox="0 0 25 26" fill="none" xmlns="http://www.w3.org/2000/svg">
<g clip-path="url(#clip0_773_449)">
<path fill-rule="evenodd" clip-rule="evenodd" d="M17.1415 9.28722C16.4465 9.27597 15.8852 8.71719 15.8727 8.02216C15.8302 3.63819 12.2437 0.119263 7.85978 0.160515C3.47581 0.201767 -0.0418695 3.7907 -0.000617418 8.17342V23.898C0.000632645 24.5942 0.564411 25.1593 1.26195 25.1605H16.9865C21.3692 25.203 24.9581 21.6853 25.0006 17.3014C25.0431 12.9174 21.5242 9.32972 17.1415 9.28722Z" fill="#0C0D03"/>
<path fill-rule="evenodd" clip-rule="evenodd" d="M14.5322 17.1246C14.4847 17.5759 14.3634 17.6847 13.9134 17.6847H10.5295V17.9522C10.5295 18.841 11.037 19.1922 12.2708 19.1922C12.8034 19.191 13.3334 19.1247 13.8509 18.9972C14.2397 18.8997 14.3584 18.9972 14.3584 19.4235V19.5823C14.3584 19.9835 14.2834 20.0673 13.8509 20.1773C13.3359 20.3136 12.8034 20.3798 12.2708 20.3736C10.227 20.3736 9.27819 19.606 9.27819 17.7697V16.7109C9.27819 14.9483 10.1782 14.0732 11.9846 14.0732C13.6759 14.0732 14.5635 14.9358 14.5635 16.5896C14.5635 16.7721 14.5522 16.9434 14.5385 17.1246H14.5322ZM5.26549 14.0745C4.75797 14.0745 4.08168 14.1545 3.72541 14.3133V12.2807C3.72541 11.8419 3.61666 11.7344 3.17914 11.7344H3.03163C2.59536 11.7344 2.48535 11.8431 2.48535 12.2807V17.7759C2.48535 19.5173 3.51915 20.3798 5.25799 20.3798C7.11933 20.3798 8.04313 19.5335 8.04313 17.7759V16.7321C8.03813 14.962 6.95808 14.0745 5.26549 14.0745ZM6.78807 17.7459C6.78807 18.761 6.4718 19.1947 5.26549 19.1947C4.05918 19.1947 3.72041 18.756 3.72041 17.7459V16.7009C3.72041 15.6858 4.05918 15.2408 5.24299 15.2408H5.26549C6.4493 15.2408 6.78807 15.6796 6.78807 16.7009V17.7459ZM17.0523 19.826C17.0523 20.2648 16.9423 20.3723 16.5036 20.3723H16.3473C15.906 20.3723 15.7973 20.2635 15.7973 19.826V16.4321C15.7973 14.8633 16.6861 14.0732 18.4486 14.0732C20.2962 14.0732 21.0875 14.8633 21.0875 16.4321V19.826C21.0875 20.2648 20.9788 20.3723 20.5413 20.3723H20.3825C19.9437 20.3723 19.8362 20.2635 19.8362 19.826V16.4321C19.8362 15.6046 19.5312 15.2483 18.4486 15.2483C17.3661 15.2483 17.0511 15.6121 17.0511 16.4321C17.0523 16.4321 17.0523 19.826 17.0523 19.826ZM10.527 16.6646H13.3121V16.4446C13.3121 15.6421 12.8484 15.242 11.9083 15.242C10.9683 15.242 10.5283 15.6433 10.5283 16.4446L10.527 16.6646Z" fill="white"/>
</g>
<defs>
<clipPath id="clip0_773_449">
<rect width="25.0012" height="25" fill="white" transform="translate(0 0.160156)"/>
</clipPath>
</defs>
</svg>
