<svg width="40" height="25" viewBox="0 0 40 25" fill="none" xmlns="http://www.w3.org/2000/svg">
<path d="M2.084 0H36.991C38.1423 0 39.075 0.94915 39.075 2.121V22.854C39.075 24.0259 38.1424 24.975 36.991 24.975H2.084C0.9326 24.975 0 24.0259 0 22.854V2.121C0 0.94915 0.9326 0 2.084 0Z" fill="black"/>
<path d="M8.36254 9.06919C8.70254 8.95419 9.06754 8.89419 9.44754 8.89419C11.1075 8.89419 12.4925 10.0742 12.8075 11.6392L15.1575 11.1592C14.6175 8.49919 12.2675 6.49414 9.44754 6.49414C8.80254 6.49414 8.18254 6.59919 7.60254 6.79414L8.36254 9.06919Z" fill="#FFF100"/>
<path d="M5.58707 16.6909L7.17707 14.8909C6.46707 14.2609 6.02207 13.3459 6.02207 12.3209C6.02207 11.3009 6.46707 10.3809 7.17707 9.75589L5.58707 7.96094C4.38207 9.03089 3.62207 10.5859 3.62207 12.3259C3.62207 14.0609 4.38207 15.6208 5.58707 16.6909Z" fill="#00A3DF"/>
<path d="M12.8077 13.0098C12.4877 14.5748 11.1077 15.7498 9.44766 15.7498C9.06766 15.7498 8.70266 15.6898 8.35766 15.5748L7.59766 17.8498C8.17766 18.0447 8.80266 18.1498 9.44766 18.1498C12.2677 18.1498 14.6177 16.1498 15.1577 13.4898L12.8077 13.0098Z" fill="#EE4023"/>
<path d="M22.9871 14.6199C22.5971 14.9999 22.0721 15.2299 21.4921 15.2199C21.0921 15.2149 20.7222 15.0949 20.4121 14.8949L19.6321 16.1349C20.1671 16.4699 20.7921 16.6699 21.4721 16.6799C22.4571 16.6949 23.3571 16.3049 24.0121 15.6699L22.9871 14.6199ZM21.5771 9.56489C19.6171 9.53489 17.9971 11.1049 17.9671 13.0649C17.9571 13.7999 18.1671 14.4899 18.5421 15.0599L24.9821 12.3048C24.6221 10.7599 23.2421 9.59484 21.5771 9.56489ZM19.4421 13.3448C19.4321 13.2648 19.4271 13.1798 19.4271 13.0948C19.4471 11.9398 20.3971 11.0148 21.5521 11.0349C22.1821 11.0448 22.7421 11.3298 23.1171 11.7798L19.4421 13.3448ZM27.0071 7.96484V14.8298L28.1972 15.3248L27.6321 16.6798L26.4521 16.1898C26.1871 16.0748 26.0071 15.8998 25.8721 15.6998C25.7421 15.4998 25.6421 15.2198 25.6421 14.8498V7.96484H27.0071ZM31.3022 11.1398C31.5122 11.0698 31.7322 11.0348 31.9672 11.0348C32.9822 11.0348 33.8222 11.7548 34.0172 12.7098L35.4522 12.4148C35.1222 10.7898 33.6872 9.56984 31.9672 9.56984C31.5722 9.56984 31.1922 9.63489 30.8422 9.74989L31.3022 11.1398ZM29.6071 15.7848L30.5771 14.6898C30.1421 14.3048 29.8721 13.7448 29.8721 13.1198C29.8721 12.4948 30.1471 11.9349 30.5771 11.5548L29.6071 10.4599C28.8722 11.1099 28.4071 12.0649 28.4071 13.1249C28.4071 14.1849 28.8722 15.1348 29.6071 15.7848ZM34.0172 13.5448C33.8222 14.4998 32.9772 15.2198 31.9672 15.2198C31.7372 15.2198 31.5122 15.1798 31.3022 15.1098L30.8372 16.4998C31.1922 16.6198 31.5722 16.6848 31.9672 16.6848C33.6872 16.6848 35.1222 15.4648 35.4522 13.8398L34.0172 13.5448Z" fill="white"/>
</svg>
