<svg width="39" height="14" viewBox="0 0 39 14" fill="none" xmlns="http://www.w3.org/2000/svg">
<g clip-path="url(#clip0_775_456)">
<path d="M18.3629 7.87165L17.9335 9.99969C17.7444 10.8624 17.2204 11.4384 16.1502 11.4384C14.9221 11.4384 14.5978 10.6826 14.8674 9.61918C15.2486 8.11056 16.4892 7.66129 18.3629 7.87165ZM20.2974 4.82934L18.9913 4.9118L18.5784 6.99555C18.0792 6.97807 17.922 6.96234 17.335 6.96234C15.4974 6.96234 13.8936 7.72859 13.4698 9.52624C13.088 11.147 14.016 12.4048 16.0398 12.4048C18.1129 12.4048 19.0148 11.3318 19.3391 9.82313L20.2974 4.82934ZM6.13064 7.96255C4.21583 7.78949 2.56856 7.94711 2.54183 8.59216C2.50042 9.56062 5.69775 8.7157 5.63608 10.4973C5.54621 13.1148 1.10014 12.5126 0 12.1796L0.199705 11.4026C2.09661 11.7012 4.09777 11.726 4.14153 10.6882C4.18852 9.58509 0.977966 10.5766 1.05315 8.79028C1.10924 7.45967 3.11598 6.74207 6.40054 7.22077L6.13064 7.96255ZM11.2936 9.74301C11.0172 10.8356 10.1438 11.5217 9.1039 11.5217C8.01639 11.5217 7.52711 10.8965 7.81874 9.74301C8.09539 8.65043 8.97879 7.9171 10.0184 7.9171C11.0575 7.9171 11.57 8.65043 11.2936 9.74301ZM10.1861 7.02265C8.28188 7.02265 6.7512 8.11522 6.3747 9.74301C5.99731 11.3717 7.02285 12.4642 8.92622 12.4642C10.8296 12.4642 12.3608 11.3717 12.7373 9.74301C13.1147 8.11551 12.0898 7.02265 10.1861 7.02265ZM32.1874 12.4366H30.5322C29.5284 11.5004 27.6083 9.3491 26.1945 7.07247H27.4092C28.7516 8.91032 32.1874 12.4366 32.1874 12.4366ZM33.9219 1.78208L34.6837 0.207031L34.9011 1.80831L36.4538 1.2693L35.3686 2.64973L36.5457 3.55438L34.9748 3.67471L34.8881 5.34008L34.0147 4.10941L32.7313 5.28356L33.2124 3.62897L31.6984 3.42531L33.1719 2.59263L32.5675 1.16733L33.9219 1.78208ZM37.1498 9.75961C36.869 10.8694 35.9821 11.5663 34.926 11.5663C33.8218 11.5663 33.324 10.9311 33.6206 9.75961C33.9014 8.64985 34.7986 7.90486 35.8544 7.90486C36.911 7.90486 37.4311 8.64985 37.1498 9.75961ZM36.025 6.99526C34.0911 6.99526 32.5366 8.10589 32.1534 9.75961C31.7704 11.4136 32.8118 12.5237 34.7454 12.5237C36.6793 12.5237 38.2344 11.4136 38.6167 9.75961C39 8.10589 37.9589 6.99526 36.0247 6.99526" fill="#2B3797"/>
<path d="M24.9395 11.9789C28.0657 10.2561 30.7814 7.60889 32.7074 5.32031C31.3227 9.6201 27.9894 11.934 24.9395 11.9789Z" fill="#ED1C24"/>
<path d="M23.7026 7.81935C24.3015 7.81935 24.6275 8.03495 24.6275 8.44692C24.6275 9.54037 22.4789 9.46811 21.5312 9.27669C21.8645 8.45799 22.6172 7.81935 23.7026 7.81935ZM25.9153 8.38749C25.9153 7.59442 25.2783 7.01172 23.833 7.01172C21.4889 7.01172 19.9658 8.52122 19.9658 10.39C19.9658 11.5967 20.9758 12.5999 22.8204 12.5999C24.0915 12.5999 24.9402 11.9784 24.9402 11.9784C23.3226 12.1503 21.3361 11.9784 21.3361 10.2618C21.3361 10.1936 21.34 10.1254 21.3455 10.0575C23.5526 10.512 25.9153 9.96196 25.9153 8.3872" fill="#2B3797"/>
</g>
<defs>
<clipPath id="clip0_775_456">
<rect width="39" height="13" fill="white" transform="translate(0 0.160156)"/>
</clipPath>
</defs>
</svg>
