<svg width="39" height="10" viewBox="0 0 39 10" fill="none" xmlns="http://www.w3.org/2000/svg">
<g clip-path="url(#clip0_803_365)">
<path fill-rule="evenodd" clip-rule="evenodd" d="M0 0.620817L2.54448 0.611328L3.25409 6.37186L6.40478 0.621212L9.14419 0.628329L3.90071 9.95351H1.25481L0 0.620817Z" fill="#013F88"/>
<path fill-rule="evenodd" clip-rule="evenodd" d="M4.83789 9.95351L10.583 0.611328H13.0264L14.7468 9.95351H12.1876L11.8552 7.96994L8.85232 7.97429L7.71004 9.95351H4.83789ZM10.0715 5.81953L11.1991 3.8581L11.5315 5.81953H10.0715Z" fill="#013F88"/>
<path fill-rule="evenodd" clip-rule="evenodd" d="M16.7769 0.640625L19.3385 0.644974L17.813 7.75293H21.1626L20.6832 9.98914L14.7832 9.95355L16.7769 0.640625Z" fill="#013F88"/>
<path fill-rule="evenodd" clip-rule="evenodd" d="M23.0499 0.660156L28.9344 0.67439L28.5057 2.80978H25.1462L24.8475 4.11806H28.2117L27.7153 6.52744H24.3562L24.0523 7.85469H27.455L27.0164 9.98573L21.0498 9.9889L23.0499 0.660156Z" fill="#013F88"/>
<path fill-rule="evenodd" clip-rule="evenodd" d="M29.6836 2.78856L30.1321 0.660686H34.5071L35.9434 0.000419102L39.0085 -0.00195312L37.7651 2.17179L34.7385 2.17416L33.3121 2.78856H29.6836Z" fill="#FCAF24"/>
<path fill-rule="evenodd" clip-rule="evenodd" d="M29.4084 4.1244L32.546 4.12914L33.9581 3.52344H36.9896L35.6567 5.90119H32.63L31.2132 6.51678H28.9346L29.4084 4.1244Z" fill="#EC1A3A"/>
<path fill-rule="evenodd" clip-rule="evenodd" d="M28.6204 7.85457L30.435 7.85931L31.8495 7.24609H34.9099L33.7002 9.38148H30.6636L29.2468 9.99035H28.1865L28.6204 7.85457Z" fill="#013F88"/>
<path fill-rule="evenodd" clip-rule="evenodd" d="M34.5065 0.660267L33.3115 2.78815L34.7379 2.17374L35.9428 0L34.5065 0.660267Z" fill="#CF921D"/>
<path fill-rule="evenodd" clip-rule="evenodd" d="M32.5457 4.12914L31.2129 6.51678L32.6297 5.90119L33.9579 3.52344L32.5457 4.12914Z" fill="#C3122F"/>
<path fill-rule="evenodd" clip-rule="evenodd" d="M30.4343 7.85931L29.2461 9.99035L30.6629 9.38148L31.8488 7.24609L30.4343 7.85931Z" fill="#002E6E"/>
</g>
<defs>
<clipPath id="clip0_803_365">
<rect width="39" height="10" fill="white"/>
</clipPath>
</defs>
</svg>
