<svg width="39" height="26" viewBox="0 0 39 26" fill="none" xmlns="http://www.w3.org/2000/svg">
<g clip-path="url(#clip0_770_403)">
<path fill-rule="evenodd" clip-rule="evenodd" d="M29.25 0C32.24 0 34.45 0.78 36.14 2.34C37.83 3.9 38.74 6.11 39 8.97V25.09H9.75C6.76 25.09 4.55 24.31 2.86 22.75C1.17 21.06 0.26 18.85 0 16.12V0H29.25Z" fill="url(#paint0_linear_770_403)"/>
<path fill-rule="evenodd" clip-rule="evenodd" d="M12.2203 7.41016H14.6903C14.6903 6.63016 14.3003 5.98016 13.3903 5.98016C12.6103 5.98016 12.2203 6.63016 12.2203 7.41016ZM16.7703 8.58016H12.3503C12.4803 9.62016 13.1303 10.0102 14.3003 10.0102C14.9503 10.0102 15.6003 9.75016 16.2503 9.36016V11.0502C15.4703 11.4402 14.6903 11.5702 13.9103 11.5702C11.7003 11.5702 10.0103 10.2702 10.0103 7.93016C10.0103 5.59016 11.5703 4.29016 13.5203 4.29016C15.9903 4.29016 16.7703 6.11016 16.7703 8.19016V8.58016ZM5.20031 11.4402L1.82031 0.910156H4.55031L6.76031 9.23016L9.23031 0.910156H11.8303L8.32031 11.4402H5.20031ZM15.6003 20.4102C15.6003 20.9302 16.1203 21.3202 16.7703 21.3202C17.8103 21.3202 18.4603 20.2802 18.4603 19.3702C18.0703 19.3702 17.6803 19.3702 17.2903 19.3702C16.3803 19.3702 15.6003 19.6302 15.6003 20.4102ZM21.0603 22.7502H18.5903C18.5903 22.3602 18.4603 21.9702 18.4603 21.5802C17.8103 22.4902 17.1603 22.8802 15.9903 22.8802C14.9503 22.8802 14.0403 22.6202 13.5203 21.9702V22.4902C12.7403 22.7502 11.8303 22.8802 10.4003 22.8802C7.54031 22.8802 4.29031 21.5802 4.29031 17.5502C4.29031 13.9102 6.89031 12.0902 10.4003 12.0902C11.4403 12.0902 12.4803 12.3502 13.5203 12.6102L13.2603 14.8202C12.3503 14.4302 11.4403 14.1702 10.5303 14.1702C8.58031 14.1702 7.28031 15.6002 7.28031 17.5502C7.28031 19.6302 8.71031 20.8002 10.7903 20.8002C11.5703 20.8002 12.3503 20.6702 13.0003 20.4102C13.0003 18.0702 15.6003 17.8102 17.1603 17.8102C17.5503 17.8102 17.9403 17.8102 18.3303 17.9402C18.3303 16.7702 17.5503 16.5102 16.6403 16.5102C15.7303 16.5102 14.8203 16.6402 14.0403 17.1602V15.3402C14.9503 14.9502 15.9903 14.6902 17.1603 14.6902C19.2403 14.6902 20.9303 15.6002 20.9303 17.9402V20.9302C20.9303 21.5802 20.9303 22.1002 21.0603 22.7502ZM23.4003 7.80016C23.4003 8.97016 24.0503 9.62016 24.8303 9.62016C25.7403 9.62016 26.3903 8.97016 26.3903 7.93016C26.3903 6.89016 25.7403 6.11016 24.8303 6.11016C23.9203 6.11016 23.4003 6.89016 23.4003 7.80016ZM28.7303 0.910156V7.15016C29.1203 5.33016 30.5503 4.42016 32.3703 4.42016C34.9703 4.42016 35.8803 6.24016 35.8803 8.19016V8.71016H31.0703C31.2003 9.62016 31.9803 10.0102 33.1503 10.0102C33.8003 10.0102 34.5803 9.75016 35.2303 9.49016V11.1802V22.7502H32.7603V21.3202C32.3703 22.2302 31.2003 22.8802 29.9003 22.8802C27.5603 22.8802 26.3903 21.0602 26.3903 18.7202C26.3903 18.0702 26.3903 17.5502 26.6503 17.0302C26.5203 16.9002 26.3903 16.9002 26.2603 16.9002C24.9603 16.9002 24.3103 17.9402 24.3103 19.3702V22.7502H21.5803V14.8202H24.0503V16.3802C24.5703 15.3402 25.2203 14.6902 26.3903 14.6902C26.6503 14.6902 27.0403 14.6902 27.3003 14.8202V15.8602C27.8203 15.2102 28.6003 14.6902 29.7703 14.6902C30.8103 14.6902 31.7203 14.9502 32.5003 15.8602V11.5702C30.6803 11.4402 29.1203 10.4002 28.7303 8.84016V11.4402H26.5203V10.1402C26.2603 10.9202 25.2203 11.5702 24.1803 11.5702C22.1003 11.5702 21.0603 9.88016 21.0603 7.80016C21.0603 7.41016 21.0603 6.89016 21.3203 6.37016C21.1903 6.37016 21.0603 6.37016 20.9303 6.37016C19.8903 6.37016 19.2403 7.15016 19.2403 8.58016V11.4402H16.7703V4.55016H18.9803V5.85016C19.3703 4.94016 20.0203 4.42016 21.0603 4.42016C21.3203 4.42016 21.5803 4.42016 21.8403 4.42016V5.46016C22.3603 4.81016 23.0103 4.42016 23.9203 4.42016C24.9603 4.42016 25.7403 4.68016 26.3903 5.46016V0.910156H28.7303ZM29.2503 18.7202C29.2503 20.0202 29.7703 20.8002 30.8103 20.8002C31.7203 20.8002 32.5003 20.0202 32.5003 18.8502C32.5003 17.6802 31.8503 16.7702 30.8103 16.7702C29.7703 16.7702 29.2503 17.6802 29.2503 18.7202ZM31.0703 7.41016H33.8003C33.8003 6.63016 33.4103 5.98016 32.5003 5.98016C31.5903 5.98016 31.2003 6.63016 31.0703 7.41016Z" fill="#008145" stroke="#008145" stroke-width="0.900007"/>
<path fill-rule="evenodd" clip-rule="evenodd" d="M28.7299 0.910156C31.4599 0.910156 33.6699 1.69016 35.2299 3.12016C36.7899 4.55016 37.5699 6.63016 37.8299 9.23016V24.1802H10.2699C7.53992 24.1802 5.32992 23.4002 3.76992 21.9702C2.20992 20.5402 1.42992 18.4602 1.16992 15.8602V0.910156H28.7299Z" stroke="#008145" stroke-width="0.900007"/>
</g>
<defs>
<linearGradient id="paint0_linear_770_403" x1="39.0003" y1="25.0901" x2="5.97777e-07" y2="-0.0391555" gradientUnits="userSpaceOnUse">
<stop stop-color="#F7C500"/>
<stop offset="0.501961" stop-color="#FFE800"/>
<stop offset="1" stop-color="#FACF00"/>
</linearGradient>
<clipPath id="clip0_770_403">
<rect width="39" height="25.09" fill="white"/>
</clipPath>
</defs>
</svg>
