<svg xmlns="http://www.w3.org/2000/svg" width="28.569" height="28.568" viewBox="0 0 28.569 28.568">
  <g id="configuration" transform="translate(-2.5 -2.5)">
    <g id="Grupo_531" data-name="Grupo 531" transform="translate(2.5 2.5)">
      <path id="Caminho_1087" data-name="Caminho 1087" d="M29.683,13.849l-1.836-.512-.783-1.927L28,9.755a1.91,1.91,0,0,0-.3-2.288L26.131,5.9a1.916,1.916,0,0,0-2.288-.3l-1.656.933-1.927-.783-.512-1.836A1.961,1.961,0,0,0,17.913,2.5h-2.2a1.9,1.9,0,0,0-1.836,1.415l-.512,1.836-1.927.783L9.785,5.6A1.91,1.91,0,0,0,7.5,5.9L5.9,7.467a1.916,1.916,0,0,0-.3,2.288l.933,1.656-.783,1.927-1.836.512A1.961,1.961,0,0,0,2.5,15.685v2.2a1.872,1.872,0,0,0,1.415,1.836l1.836.512.783,1.927L5.6,23.813A1.91,1.91,0,0,0,5.9,26.1l1.565,1.565a1.916,1.916,0,0,0,2.288.3l1.656-.933,1.927.783.512,1.836a1.961,1.961,0,0,0,1.836,1.415h2.2a1.9,1.9,0,0,0,1.836-1.415l.512-1.836,1.927-.783,1.656.933a1.91,1.91,0,0,0,2.288-.3L27.666,26.1a1.91,1.91,0,0,0,.3-2.288l-.933-1.656.783-1.927,1.836-.512a1.961,1.961,0,0,0,1.415-1.836v-2.2A1.863,1.863,0,0,0,29.683,13.849Zm-.211,4.064a.327.327,0,0,1-.211.3l-2.589.692-1.385,3.372,1.325,2.348a.278.278,0,0,1-.06.361l-1.565,1.565a.32.32,0,0,1-.361.06l-2.348-1.325-3.372,1.385-.722,2.589a.3.3,0,0,1-.3.211h-2.2a.362.362,0,0,1-.3-.211l-.692-2.589L11.32,25.288,8.972,26.613a.278.278,0,0,1-.361-.06L7.046,24.987a.32.32,0,0,1-.06-.361L8.31,22.278,6.925,18.906l-2.589-.722a.3.3,0,0,1-.211-.3v-2.2a.327.327,0,0,1,.211-.3l2.589-.722L8.31,11.29,6.985,8.972a.278.278,0,0,1,.06-.361L8.611,7.046a.32.32,0,0,1,.361-.06L11.32,8.31l3.372-1.385.722-2.589a.3.3,0,0,1,.3-.211h2.2a.362.362,0,0,1,.3.211l.722,2.589L22.308,8.34l2.348-1.325a.278.278,0,0,1,.361.06l1.565,1.565a.32.32,0,0,1,.06.361L25.318,11.35l1.355,3.341,2.589.722a.3.3,0,0,1,.211.3Z" transform="translate(-2.5 -2.5)" fill="#575757"/>
      <path id="Caminho_1088" data-name="Caminho 1088" d="M37.419,32a5.419,5.419,0,1,0,5.419,5.419A5.435,5.435,0,0,0,37.419,32Zm0,9.212a3.793,3.793,0,1,1,3.793-3.793A3.8,3.8,0,0,1,37.419,41.212Z" transform="translate(-23.12 -23.12)" fill="#575757"/>
    </g>
  </g>
</svg>
